<svg xmlns="http://www.w3.org/2000/svg" version="1.1" xmlns:xlink="http://www.w3.org/1999/xlink" xmlns:svgjs="http://svgjs.dev/svgjs" width="2000" height="1090" viewBox="0 0 2000 1090"><g transform="matrix(1,0,0,1,-1.2121212121212466,1.1479389154065984)"><svg viewBox="0 0 396 216" data-background-color="#f2f0e4" preserveAspectRatio="xMidYMid meet" height="1090" width="2000" xmlns="http://www.w3.org/2000/svg" xmlns:xlink="http://www.w3.org/1999/xlink"><g id="tight-bounds" transform="matrix(1,0,0,1,0.2400000000000091,-0.22748147314479183)"><svg viewBox="0 0 395.52 216.45496294628958" height="216.45496294628958" width="395.52"><g><svg viewBox="0 0 395.52 216.45496294628958" height="216.45496294628958" width="395.52"><g transform="matrix(1,0,0,1,0,150.282234930722)"><svg viewBox="0 0 395.52 66.17272801556757" height="66.17272801556757" width="395.52"><g id="textblocktransform"><svg viewBox="0 0 395.52 66.17272801556757" height="66.17272801556757" width="395.52" id="textblock"><g><svg viewBox="0 0 395.52 32.660535940195516" height="32.660535940195516" width="395.52"><g transform="matrix(1,0,0,1,0,0)"><svg width="395.52" viewBox="2 -35.45 434.72 35.900000000000006" height="32.660535940195516" data-palette-color="#3d2f28"><path d="M22.2-34.95L31.7-35Q31.7-34.95 31.75-34.25L31.75-34.25 28.6-33.9 28.6-0.95 32.25-0.75Q32.25-0.7 32.2 0L32.2 0 22.2 0.05Q22.2-0.4 22.25-0.65L22.25-0.65 24.85-1Q25.35-1.05 25.45-1.65L25.45-1.65 25.45-16.85 8.4-16.85 8.4-0.95 12.1-0.75Q12.1-0.7 12.05 0L12.05 0 2 0.05 2.05-0.65 4.65-1Q5.15-1.05 5.25-1.6L5.25-1.6 5.25-33.3Q5.15-33.9 4.65-33.95L4.65-33.95 2.05-34.2 2-34.95 12.05-35Q12.05-34.95 12.1-34.25L12.1-34.25 8.4-33.9 8.4-17.85 25.45-17.85 25.45-33.25Q25.35-33.9 24.85-33.95L24.85-33.95 22.25-34.2Q22.2-34.5 22.2-34.95L22.2-34.95ZM35.7-17.4L35.7-17.4Q35.7-25.65 39.92-30.55 44.15-35.45 50.45-35.45L50.45-35.45Q65.2-35.45 65.2-17.4L65.2-17.4Q65.2-9.1 61-4.33 56.8 0.45 50.45 0.45L50.45 0.45Q35.7 0.45 35.7-17.4ZM39.1-17.5L39.1-17.5Q39.1-0.55 50.45-0.55L50.45-0.55Q55.35-0.55 58.57-5.05 61.8-9.55 61.8-17.5L61.8-17.5Q61.8-34.45 50.45-34.45L50.45-34.45Q45.6-34.45 42.35-29.9 39.1-25.35 39.1-17.5ZM70.75-33.95L68.1-34.25 68.15-35 74.75-35 86.7-9.65 98.45-35 105.05-35Q105.05-34.9 105.1-34.65 105.15-34.4 105.1-34.25L105.1-34.25 102.45-33.95Q101.95-33.9 101.84-33.3L101.84-33.3 101.84-0.95 105.55-0.75Q105.55-0.7 105.5 0L105.5 0 95.45 0.05 95.5-0.65 98.1-1Q98.59-1.05 98.7-1.6L98.7-1.6 98.7-33.2 87.3-8.55 86.3-6.55 85.15-6.55 72.5-33.25 72.5-1.05 78.2-0.75Q78.2-0.7 78.15 0L78.15 0 68.1 0.05 68.15-0.65 70.75-1Q71.25-1.05 71.35-1.65L71.35-1.65 71.35-33.3Q71.25-33.9 70.75-33.95L70.75-33.95ZM111.29-33.95L108.64-34.25 108.69-35 130.09-35 130.04-34.85 130.69-27.8 129.69-27.4 128.89-34 115.29-34 115.29-17.85 127.24-17.85Q127.49-17.8 127.69-17.98 127.89-18.15 127.89-18.45L127.89-18.45 128.09-21.9 128.89-22 128.89-13.45Q128.84-13.45 128.14-13.4L128.14-13.4 127.94-16.85 115.29-16.85 115.29-1 130.24-1 131.19-9 132.14-8.75 131.39 0 118.69 0 108.64 0.05 108.69-0.65 111.29-1Q111.79-1.05 111.89-1.65L111.89-1.65 111.89-33.3Q111.79-33.9 111.29-33.95L111.29-33.95ZM133.64-34.95L143.69-35Q143.69-34.95 143.74-34.25L143.74-34.25 139.84-33.9 148.14-1.3 157.44-35 158.19-35 158.04-34.6 158.24-35 167.04-1.2 175.84-33.25Q175.84-33.75 175.39-33.8L175.39-33.8 170.69-34.2 170.64-34.95 180.44-35Q180.44-34.95 180.49-34.25L180.49-34.25 177.24-33.95 167.34 0 164.29 0 156.74-29.85 148.49 0 145.39 0 136.79-33.55Q136.64-33.9 136.29-33.95L136.29-33.95 133.69-34.2 133.64-34.95ZM185.64 0L175.59 0.05 175.64-0.65 178.24-1Q178.59-1.05 178.84-1.65L178.84-1.65 189.64-35 192.94-35 204.44-0.95 207.89-0.75Q207.89-0.7 207.84 0L207.84 0 197.84 0.05Q197.84-0.4 197.89-0.65L197.89-0.65 200.49-1Q200.89-1.05 200.89-1.6L200.89-1.6 198.14-9.75 182.54-9.75 179.89-1.05 185.69-0.75Q185.69-0.7 185.64 0L185.64 0ZM197.79-10.75L189.99-34.05 182.84-10.75 197.79-10.75ZM212.34-33.95L209.69-34.25 209.74-35 221.89-35Q227.04-35 229.84-32.75 232.64-30.5 232.64-26.05L232.64-26.05Q232.64-23.15 230.41-20 228.19-16.85 226.24-15.95L226.24-15.95 235.49-0.9 237.94-0.75Q237.94-0.7 237.89 0L237.89 0 232.44 0.05 222.94-15.35 216.29-15.35 216.29-0.95 219.79-0.75Q219.79-0.7 219.74 0L219.74 0 209.69 0.05 209.74-0.65 212.34-1Q212.69-1.05 212.89-1.45L212.89-1.45 212.89-33.45Q212.74-33.9 212.34-33.95L212.34-33.95ZM221.64-34.25L221.64-34.25 216.29-34.25 216.29-16.1 224.84-16.1Q227.44-19.05 228.34-21.33 229.24-23.6 229.24-25.75L229.24-25.75Q229.24-29.95 227.29-32.1 225.34-34.25 221.64-34.25ZM243.38-33.95L240.73-34.25 240.78-35 252.98-35Q259.73-35 263.81-31.08 267.88-27.15 267.88-18.3L267.88-18.3Q267.88-9.55 265.03-5.2L265.03-5.2Q262.53-1.4 257.23-0.4L257.23-0.4Q254.88 0 251.73 0L251.73 0 250.78 0 240.73 0.05 240.78-0.65 243.38-1Q243.88-1.05 243.98-1.65L243.98-1.65 243.98-33.25Q243.88-33.9 243.38-33.95L243.38-33.95ZM252.73-34.25L252.73-34.25 247.38-34.25 247.38-0.75 251.48-0.75Q253.88-0.75 255.56-1.03 257.23-1.3 259.06-2.33 260.88-3.35 261.93-5.15L261.93-5.15Q264.48-9.4 264.48-18.05L264.48-18.05Q264.48-27.05 260.93-30.8L260.93-30.8Q257.68-34.25 252.73-34.25ZM307.03-34.95L316.53-35Q316.53-34.95 316.58-34.25L316.58-34.25 313.43-33.9 313.43-0.95 317.08-0.75Q317.08-0.7 317.03 0L317.03 0 307.03 0.05Q307.03-0.4 307.08-0.65L307.08-0.65 309.68-1Q310.18-1.05 310.28-1.65L310.28-1.65 310.28-16.85 293.23-16.85 293.23-0.95 296.93-0.75Q296.93-0.7 296.88 0L296.88 0 286.83 0.05 286.88-0.65 289.48-1Q289.98-1.05 290.08-1.6L290.08-1.6 290.08-33.3Q289.98-33.9 289.48-33.95L289.48-33.95 286.88-34.2 286.83-34.95 296.88-35Q296.88-34.95 296.93-34.25L296.93-34.25 293.23-33.9 293.23-17.85 310.28-17.85 310.28-33.25Q310.18-33.9 309.68-33.95L309.68-33.95 307.08-34.2Q307.03-34.5 307.03-34.95L307.03-34.95ZM328.88 0L318.83 0.05 318.88-0.65 321.48-1Q321.83-1.05 322.08-1.65L322.08-1.65 332.88-35 336.18-35 347.68-0.95 351.13-0.75Q351.13-0.7 351.08 0L351.08 0 341.08 0.05Q341.08-0.4 341.13-0.65L341.13-0.65 343.73-1Q344.13-1.05 344.13-1.6L344.13-1.6 341.38-9.75 325.78-9.75 323.13-1.05 328.93-0.75Q328.93-0.7 328.88 0L328.88 0ZM341.03-10.75L333.23-34.05 326.08-10.75 341.03-10.75ZM367.37-34.95L377.12-35Q377.12-34.95 377.17-34.25L377.17-34.25 374.02-33.95 363.02 0 359.72 0 348.32-33.7Q348.17-33.9 347.92-33.95L347.92-33.95 345.32-34.2Q345.27-34.5 345.27-34.95L345.27-34.95 355.27-35Q355.27-34.95 355.32-34.25L355.32-34.25 351.62-33.9 362.67-0.95 372.37-32.7 372.42-33.15Q372.42-33.75 371.97-33.8L371.97-33.8 367.42-34.2Q367.37-34.5 367.37-34.95L367.37-34.95ZM382.42-33.95L379.77-34.25 379.82-35 401.22-35 401.17-34.85 401.82-27.8 400.82-27.4 400.02-34 386.42-34 386.42-17.85 398.37-17.85Q398.62-17.8 398.82-17.98 399.02-18.15 399.02-18.45L399.02-18.45 399.22-21.9 400.02-22 400.02-13.45Q399.97-13.45 399.27-13.4L399.27-13.4 399.07-16.85 386.42-16.85 386.42-1 401.37-1 402.32-9 403.27-8.75 402.52 0 389.82 0 379.77 0.05 379.82-0.65 382.42-1Q382.92-1.05 383.02-1.65L383.02-1.65 383.02-33.3Q382.92-33.9 382.42-33.95L382.42-33.95ZM408.92-33.95L406.27-34.25 406.32-35 413.17-35 432.62-1.4 432.37-33.25Q432.17-33.75 431.82-33.8L431.82-33.8 427.22-34.2Q427.17-34.5 427.17-34.95L427.17-34.95 436.67-35Q436.67-34.95 436.72-34.25L436.72-34.25 433.52-33.9 433.52 0 429.87 0 410.42-33.6 410.67-1.05 416.37-0.75Q416.37-0.7 416.32 0L416.32 0 406.27 0.05 406.32-0.65 408.92-1Q409.42-1.05 409.52-1.65L409.52-1.65 409.52-33.3Q409.42-33.9 408.92-33.95L408.92-33.95Z" opacity="1" transform="matrix(1,0,0,1,0,0)" fill="#ffffff" class="wordmark-text-0" data-fill-palette-color="primary" id="text-0"></path></svg></g></svg></g><g transform="matrix(1,0,0,1,104.95866703452847,40.370904622813114)"><svg viewBox="0 0 185.60266593094303 25.801823392754457" height="25.801823392754457" width="185.60266593094303"><g transform="matrix(1,0,0,1,0,0)"><svg width="185.60266593094303" viewBox="3.7 -54.4 598.79 83.25" height="25.801823392754457" data-palette-color="#3d2f28"><path d="M54.1-38.5Q54.95-38.5 55.55-38.08 56.15-37.65 56.7-36.9L56.7-36.9Q55.7-36.8 55.4-36.7L55.4-36.7Q52.45-35.65 48.83-29.93 45.2-24.2 41.85-16.3 38.5-8.4 36.15-0.75L36.15-0.75Q36.15-0.7 36.05-0.43 35.95-0.15 35.77 0.03 35.6 0.2 35.25 0.3L35.25 0.3Q34.75 0.4 34.33 0.53 33.9 0.65 33.52 0.83 33.15 1 32.85 1.15L32.85 1.15Q32.75 1.2 32.7 1.2L32.7 1.2Q32.4 1.2 32.3 1 32.2 0.8 32.1 0.2L32.1 0.2Q31.3-6.85 30.48-11.7 29.65-16.55 28.45-22.25L28.45-22.25 27.55-26.8Q24.5-22.8 20.68-15.2 16.85-7.6 13.7-0.45L13.7-0.45Q13.55-0.05 13.43 0.08 13.3 0.2 13.05 0.25L13.05 0.25Q11.8 0.45 11.4 0.6 11 0.75 10.78 1 10.55 1.25 10.2 1.45L10.2 1.45Q9.65 1.45 9.8 0.75L9.8 0.75Q10.15-0.95 10.43-5.9 10.7-10.85 10.7-16.15L10.7-16.15Q10.7-20.9 10.48-24.98 10.25-29.05 9.9-30.45L9.9-30.45Q9.75-31.05 9.43-31.33 9.1-31.6 8.4-31.6L8.4-31.6Q7.6-31.6 5.8-31.15L5.8-31.15Q4.7-30.95 4.6-30.95L4.6-30.95Q4.15-30.95 3.93-31.45 3.7-31.95 3.7-32.55L3.7-32.55Q3.7-33.25 4.05-33.25L4.05-33.25Q7.9-33.85 12.15-35.25L12.15-35.25Q13.35-35.65 13.65-35.65L13.65-35.65Q14-35.65 14-35.3L14-35.3Q14-35 13.9-34.8L13.9-34.8Q13.4-33.55 13.18-32.58 12.95-31.6 12.85-29.4L12.85-29.4Q12.75-26.9 12.75-21.15L12.75-21.15Q12.75-11.25 12.85-5.25L12.85-5.25Q13.55-6.55 16.7-12.45L16.7-12.45Q23-24.2 27.05-31.05L27.05-31.05Q27.6-31.6 29.8-31.6L29.8-31.6Q30.65-24 31.73-17.73 32.8-11.45 34.35-3.9L34.35-3.9Q40.3-19.8 45.13-29.15 49.95-38.5 54.1-38.5L54.1-38.5ZM76.8-54.4Q81.1-54.4 83.6-52.03 86.1-49.65 86.1-45.35L86.1-45.35 85.75-44.75Q84.65-48.15 82.3-49.78 79.95-51.4 76.65-51.4L76.65-51.4Q69.7-51.4 64.85-43.58 60-35.75 56.45-21L56.45-21 55.15-15.35 54.5-12.45Q56.55-15.35 59.7-18.07 62.85-20.8 64.45-20.8L64.45-20.8Q64.85-20.8 65.62-20.05 66.4-19.3 66.4-18.95L66.4-18.95Q65.45-16.2 64.15-10.9 62.85-5.6 62.85-4.15L62.85-4.15Q62.85-2.75 63.3-2.13 63.75-1.5 65.15-1.5L65.15-1.5Q67.65-1.5 70-3.4 72.35-5.3 74.07-7.73 75.8-10.15 76.7-12L76.7-12Q77.05-11.9 77.25-11.65 77.45-11.4 77.5-10.9L77.5-10.9 77.5-10.75Q77.5-10.15 77.1-9.35L77.1-9.35Q74.8-5.15 71.2-2.27 67.6 0.6 64.2 0.6L64.2 0.6Q62.45 0.6 61.4-0.5 60.35-1.6 60.35-3.6L60.35-3.6Q60.35-5.55 60.97-8.4 61.6-11.25 62.65-15.1L62.65-15.1Q62.6-14.85 63.2-17.15L63.2-17.15Q63.15-17.35 62.95-17.5 62.75-17.65 62.6-17.65L62.6-17.65Q62.1-17.65 60.25-16 58.4-14.35 56.5-12.05 54.6-9.75 53.65-7.75L53.65-7.75Q53.15-5.75 52.65-2.75L52.65-2.75Q52.6-2.4 52.55-2 52.5-1.6 52.4-1.2L52.4-1.2Q52.25-0.3 52.12 0.03 52 0.35 51.7 0.35L51.7 0.35Q51.1 0.35 50.35 0.05 49.6-0.25 49.6-0.7L49.6-0.7Q49.6-1.35 49.9-2.6L49.9-2.6 54.25-21.05Q57.9-36.65 63.55-45.53 69.2-54.4 76.8-54.4L76.8-54.4ZM95.5-11.95Q96.4-11.8 96.4-10.95L96.4-10.95Q96.4-8.95 93.82-6.28 91.25-3.6 87.75-1.68 84.25 0.25 81.9 0.25L81.9 0.25Q79.65 0.25 78-0.93 76.35-2.1 75.47-3.55 74.6-5 74.6-5.7L74.6-5.7Q75.4-8.55 76.35-13.6L76.35-13.6 76.9-16.4Q77.1-17.4 78.35-18.48 79.6-19.55 81.15-20.28 82.7-21 83.65-21L83.65-21Q84.4-21 85.47-20.53 86.55-20.05 87.37-19.05 88.2-18.05 88.2-16.5L88.2-16.5Q88.2-14.7 87-13.1 85.8-11.5 83.45-10.5 81.1-9.5 77.8-9.5L77.8-9.5 77.1-6.15Q77.1-5.7 77.62-4.65 78.15-3.6 79.32-2.75 80.5-1.9 82.3-1.9L82.3-1.9Q84.7-1.9 87.35-3.48 90-5.05 92.2-7.4 94.4-9.75 95.5-11.95L95.5-11.95ZM83.25-18.95Q82.65-18.95 81.7-18.45 80.75-17.95 79.97-17.2 79.2-16.45 79.05-15.8L79.05-15.8Q78.55-13.55 78.15-11.25L78.15-11.25Q82-11.4 83.95-12.78 85.9-14.15 85.9-15.9L85.9-15.9Q85.9-17.15 85-18.05 84.1-18.95 83.25-18.95L83.25-18.95ZM115.99-17.85Q116.19-17.8 116.34-17.55 116.49-17.3 116.49-17L116.49-17Q116.49-15.95 115.52-14.98 114.54-14 112.97-13.4 111.39-12.8 109.79-12.8L109.79-12.8Q107.29-12.8 105.52-14.1 103.74-15.4 103.24-17.75L103.24-17.75Q100.99-17.5 99.12-14.9 97.24-12.3 96.49-9.25L96.49-9.25Q96.39-8.75 95.74-6.18 95.09-3.6 94.49-0.1L94.49-0.1Q94.44 0.05 94.37 0.13 94.29 0.2 94.04 0.2L94.04 0.2Q93.69 0.2 92.99-0.1 92.29-0.4 92.29-0.75L92.29-0.75Q92.29-1.45 92.54-2.6L92.54-2.6Q95.59-16.7 96.49-20.05L96.49-20.05Q96.59-20.5 96.72-20.65 96.84-20.8 97.14-20.8L97.14-20.8Q97.34-20.8 97.99-20.48 98.64-20.15 99.04-19.8L99.04-19.8 98.14-16.9 97.84-15.9Q98.99-17.7 100.49-18.8 101.99-19.9 103.69-19.9L103.69-19.9Q104.19-19.9 104.69-19.8 105.19-19.7 105.39-19.55L105.39-19.55Q105.39-17.1 106.67-15.93 107.94-14.75 110.24-14.75L110.24-14.75Q112.29-14.75 113.64-15.45 114.99-16.15 115.99-17.85L115.99-17.85ZM132.89-11.95Q133.79-11.8 133.79-10.95L133.79-10.95Q133.79-8.95 131.22-6.28 128.64-3.6 125.14-1.68 121.64 0.25 119.29 0.25L119.29 0.25Q117.04 0.25 115.39-0.93 113.74-2.1 112.87-3.55 111.99-5 111.99-5.7L111.99-5.7Q112.79-8.55 113.74-13.6L113.74-13.6 114.29-16.4Q114.49-17.4 115.74-18.48 116.99-19.55 118.54-20.28 120.09-21 121.04-21L121.04-21Q121.79-21 122.87-20.53 123.94-20.05 124.77-19.05 125.59-18.05 125.59-16.5L125.59-16.5Q125.59-14.7 124.39-13.1 123.19-11.5 120.84-10.5 118.49-9.5 115.19-9.5L115.19-9.5 114.49-6.15Q114.49-5.7 115.02-4.65 115.54-3.6 116.72-2.75 117.89-1.9 119.69-1.9L119.69-1.9Q122.09-1.9 124.74-3.48 127.39-5.05 129.59-7.4 131.79-9.75 132.89-11.95L132.89-11.95ZM120.64-18.95Q120.04-18.95 119.09-18.45 118.14-17.95 117.37-17.2 116.59-16.45 116.44-15.8L116.44-15.8Q115.94-13.55 115.54-11.25L115.54-11.25Q119.39-11.4 121.34-12.78 123.29-14.15 123.29-15.9L123.29-15.9Q123.29-17.15 122.39-18.05 121.49-18.95 120.64-18.95L120.64-18.95ZM157.29 0.85Q153.64 0.85 150.59-0.63 147.54-2.1 145.71-5.15 143.89-8.2 143.89-12.75L143.89-12.75Q143.89-18.55 146.79-23.88 149.69-29.2 154.66-32.5 159.64-35.8 165.54-35.8L165.54-35.8Q168.74-35.8 171.54-34.83 174.34-33.85 175.44-32.2L175.44-32.2Q174.94-30.9 174.56-28.93 174.19-26.95 174.14-25.2L174.14-25.2 172.89-25Q172.89-25.75 172.81-26.85 172.74-27.95 172.59-28.85L172.59-28.85Q172.24-31.2 170.61-32.45 168.99-33.7 165.69-33.7L165.69-33.7Q160.34-33.7 156.01-30.6 151.69-27.5 149.24-22.65 146.79-17.8 146.79-12.85L146.79-12.85Q146.79-9.05 148.26-6.53 149.74-4 152.21-2.78 154.69-1.55 157.74-1.55L157.74-1.55Q162.99-1.55 167.54-4.98 172.09-8.4 174.44-14.75L174.44-14.75Q175.79-14.75 175.79-12.9L175.79-12.9Q175.79-10.3 173.19-7.03 170.59-3.75 166.31-1.45 162.04 0.85 157.29 0.85L157.29 0.85ZM208.68-17.65Q209.18-17.5 209.18-16.65L209.18-16.65Q209.18-15.4 208.18-14.08 207.18-12.75 205.46-11.9 203.73-11.05 201.68-11.05L201.68-11.05Q198.93-11.05 196.83-12.55L196.83-12.55Q196.53-11.1 196.08-9.6L196.08-9.6Q195.93-9.05 195.43-7.08 194.93-5.1 194.73-3.55L194.73-3.55Q194.38-2.75 193.33-1.83 192.28-0.9 190.83-0.25 189.38 0.4 187.98 0.4L187.98 0.4Q186.43 0.4 184.98-0.4 183.53-1.2 182.61-2.55 181.68-3.9 181.68-5.55L181.68-5.55Q182.38-7.65 182.83-9.5 183.28-11.35 183.68-13.25L183.68-13.25 184.18-15.75Q184.43-16.9 185.53-18.03 186.63-19.15 188.21-19.88 189.78-20.6 191.38-20.6L191.38-20.6Q191.98-20.6 193.08-20.4L193.08-20.4Q193.23-21.55 193.61-22 193.98-22.45 194.83-22.45L194.83-22.45Q195.33-22.45 195.98-22.3L195.98-22.3Q195.73-20.9 195.73-19.9L195.73-19.9Q195.73-17 197.48-15 199.23-13 202.23-13L202.23-13Q204.48-13 206.11-14.2 207.73-15.4 208.68-17.65L208.68-17.65ZM192.53-4.4Q192.93-6.4 193.68-8.95L193.68-8.95Q194.68-12.3 194.98-14.35L194.98-14.35Q193.88-15.75 193.48-17.75L193.48-17.75Q193.48-17.95 193.41-18.07 193.33-18.2 193.08-18.25L193.08-18.25Q192.33-18.55 191.38-18.55L191.38-18.55Q189.53-18.55 188.18-17.55 186.83-16.55 186.48-15.15L186.48-15.15Q186.33-14.55 185.38-10.45L185.38-10.45Q184.93-8.05 184.28-5.7L184.28-5.7Q184.28-3.85 185.53-2.83 186.78-1.8 188.18-1.8L188.18-1.8Q189.38-1.8 190.76-2.65 192.13-3.5 192.53-4.4L192.53-4.4ZM240.33-11.55Q240.38-10 238.46-7.15 236.53-4.3 233.73-2.1 230.93 0.1 228.23 0.1L228.23 0.1Q226.33 0.1 225.11-1.13 223.88-2.35 223.88-4.85L223.88-4.85Q223.88-6.9 224.56-9.47 225.23-12.05 226.38-15.6L226.38-15.6Q226.73-16.55 227.03-17.6L227.03-17.6Q227.03-17.75 226.83-17.88 226.63-18 226.43-18L226.43-18Q225.78-18 223.86-16.13 221.93-14.25 219.96-11.83 217.98-9.4 217.33-8.15L217.33-8.15Q216.83-6.6 215.68-1.65L215.68-1.65Q215.48-0.8 215.36-0.5 215.23-0.2 214.93-0.2L214.93-0.2Q214.48-0.2 213.91-0.75 213.33-1.3 213.33-1.85L213.33-1.85Q213.33-2.4 213.83-4.25L213.83-4.25Q215.93-11.95 217.23-17.6L217.23-17.6Q216.93-18 216.48-18L216.48-18Q215.73-18 213.93-16.15 212.13-14.3 210.18-11.48 208.23-8.65 206.98-5.9L206.98-5.9Q206.23-3.45 205.63-0.25L205.63-0.25Q205.13-0.25 204.33-0.6 203.53-0.95 203.53-1.3L203.53-1.3Q203.53-1.7 204.03-3.55L204.03-3.55 208.28-20.1Q208.38-20.55 208.53-20.75 208.68-20.95 208.98-20.95L208.98-20.95Q209.28-20.95 210.01-20.65 210.73-20.35 210.93-20.15L210.93-20.15 210.48-18.55Q210.33-17.95 209.81-16.07 209.28-14.2 208.83-12.2L208.83-12.2Q210.38-14.9 212.06-16.68 213.73-18.45 215.13-19.28 216.53-20.1 217.28-20.1L217.28-20.1Q217.83-20.1 218.68-19.5 219.53-18.9 219.53-18.5L219.53-18.5Q219.08-15.75 218.23-12.3L218.23-12.3Q220.28-15.1 223.13-17.88 225.98-20.65 227.48-20.65L227.48-20.65Q228.18-20.65 228.98-20.1 229.78-19.55 229.83-18.8L229.83-18.8Q228.23-13.85 227.36-10.65 226.48-7.45 226.48-4.9L226.48-4.9Q226.48-3.4 226.98-2.73 227.48-2.05 228.78-2.05L228.78-2.05Q231.83-2.05 234.68-5.38 237.53-8.7 239.03-13.2L239.03-13.2Q239.58-13.2 239.96-12.7 240.33-12.2 240.33-11.55L240.33-11.55ZM265.63-46.8Q265.63-45.65 264.58-45.05L264.58-45.05Q263.58-45.9 262.18-46.35 260.78-46.8 259.33-46.8L259.33-46.8Q256.43-46.8 254.63-44.58 252.83-42.35 251.13-36.8 249.43-31.25 246.73-19.35L246.73-19.35 256.88-19.5Q256.98-19.35 256.98-19.05L256.98-19.05Q256.98-18.5 256.4-18.05 255.83-17.6 255.28-17.6L255.28-17.6 254.18-17.6Q248.63-17.5 246.28-17.4L246.28-17.4Q244.18-7.9 242.43-0.65L242.43-0.65Q242.23-0.05 242.1 0.5 241.98 1.05 241.88 1.5L241.88 1.5Q239.63 10.45 237.53 16.23 235.43 22 232.53 25.43 229.63 28.85 225.73 28.85L225.73 28.85Q222.58 28.85 220.65 26.83 218.73 24.8 217.93 22.38 217.13 19.95 217.13 18.7L217.13 18.7Q217.13 17.85 217.43 17.2 217.73 16.55 218.33 15.6L218.33 15.6Q218.93 14.8 219.18 14.3L219.18 14.3Q220.13 20.3 221.7 23.08 223.28 25.85 226.53 25.85L226.53 25.85Q229.18 25.85 231.18 23.85 233.18 21.85 234.93 17.32 236.68 12.8 238.58 4.9L238.58 4.9Q240.33-2.5 242.53-12.1L242.53-12.1 243.73-17.3Q240.03-17.2 238.35-16.9 236.68-16.6 235.85-15.83 235.03-15.05 234.38-13.3L234.38-13.3 233.73-13.5Q234.28-16.35 234.93-17.45 235.58-18.55 236.83-18.8L236.83-18.8Q238.63-19.2 244.18-19.35L244.18-19.35Q246.53-29.7 247.95-34.65 249.38-39.6 251.13-42.63 252.88-45.65 255.73-47.55L255.73-47.55Q258.73-49.5 261.58-49.5L261.58-49.5Q263.43-49.5 264.53-48.75 265.63-48 265.63-46.8L265.63-46.8ZM283.63-17.65Q284.13-17.5 284.13-16.65L284.13-16.65Q284.13-15.4 283.13-14.08 282.13-12.75 280.4-11.9 278.68-11.05 276.63-11.05L276.63-11.05Q273.88-11.05 271.78-12.55L271.78-12.55Q271.48-11.1 271.03-9.6L271.03-9.6Q270.88-9.05 270.38-7.08 269.88-5.1 269.68-3.55L269.68-3.55Q269.33-2.75 268.28-1.83 267.23-0.9 265.78-0.25 264.33 0.4 262.93 0.4L262.93 0.4Q261.38 0.4 259.93-0.4 258.48-1.2 257.55-2.55 256.63-3.9 256.63-5.55L256.63-5.55Q257.33-7.65 257.78-9.5 258.23-11.35 258.63-13.25L258.63-13.25 259.13-15.75Q259.38-16.9 260.48-18.03 261.58-19.15 263.15-19.88 264.73-20.6 266.33-20.6L266.33-20.6Q266.93-20.6 268.03-20.4L268.03-20.4Q268.18-21.55 268.55-22 268.93-22.45 269.78-22.45L269.78-22.45Q270.28-22.45 270.93-22.3L270.93-22.3Q270.68-20.9 270.68-19.9L270.68-19.9Q270.68-17 272.43-15 274.18-13 277.18-13L277.18-13Q279.43-13 281.05-14.2 282.68-15.4 283.63-17.65L283.63-17.65ZM267.48-4.4Q267.88-6.4 268.63-8.95L268.63-8.95Q269.63-12.3 269.93-14.35L269.93-14.35Q268.83-15.75 268.43-17.75L268.43-17.75Q268.43-17.95 268.35-18.07 268.28-18.2 268.03-18.25L268.03-18.25Q267.28-18.55 266.33-18.55L266.33-18.55Q264.48-18.55 263.13-17.55 261.78-16.55 261.43-15.15L261.43-15.15Q261.28-14.55 260.33-10.45L260.33-10.45Q259.88-8.05 259.23-5.7L259.23-5.7Q259.23-3.85 260.48-2.83 261.73-1.8 263.13-1.8L263.13-1.8Q264.33-1.8 265.7-2.65 267.08-3.5 267.48-4.4L267.48-4.4ZM302.72-17.85Q302.92-17.8 303.07-17.55 303.22-17.3 303.22-17L303.22-17Q303.22-15.95 302.25-14.98 301.27-14 299.7-13.4 298.12-12.8 296.52-12.8L296.52-12.8Q294.02-12.8 292.25-14.1 290.47-15.4 289.97-17.75L289.97-17.75Q287.72-17.5 285.85-14.9 283.97-12.3 283.22-9.25L283.22-9.25Q283.12-8.75 282.47-6.18 281.82-3.6 281.22-0.1L281.22-0.1Q281.17 0.05 281.1 0.13 281.02 0.2 280.77 0.2L280.77 0.2Q280.42 0.2 279.72-0.1 279.02-0.4 279.02-0.75L279.02-0.75Q279.02-1.45 279.27-2.6L279.27-2.6Q282.32-16.7 283.22-20.05L283.22-20.05Q283.32-20.5 283.45-20.65 283.57-20.8 283.87-20.8L283.87-20.8Q284.07-20.8 284.72-20.48 285.37-20.15 285.77-19.8L285.77-19.8 284.87-16.9 284.57-15.9Q285.72-17.7 287.22-18.8 288.72-19.9 290.42-19.9L290.42-19.9Q290.92-19.9 291.42-19.8 291.92-19.7 292.12-19.55L292.12-19.55Q292.12-17.1 293.4-15.93 294.67-14.75 296.97-14.75L296.97-14.75Q299.02-14.75 300.37-15.45 301.72-16.15 302.72-17.85L302.72-17.85ZM317.92-8.3Q318.17-7.95 318.17-7.45L318.17-7.45Q318.17-7.05 318.02-6.75 317.87-6.45 317.52-6L317.52-6Q316.22-4.45 313.9-2.93 311.57-1.4 309.02-0.45 306.47 0.5 304.57 0.5L304.57 0.5Q302.42 0.5 301-0.83 299.57-2.15 299.57-4.8L299.57-4.8Q299.57-8.15 301.97-17.4L301.97-17.4 296.67-17.2Q296.57-17.25 296.4-17.38 296.22-17.5 296.17-17.6L296.17-17.6Q296.32-17.85 296.72-18.6 297.12-19.35 297.42-19.65L297.42-19.65 302.57-19.6Q304.22-25.7 306.37-32.15L306.37-32.15Q307.27-32.85 308.67-33.68 310.07-34.5 310.37-34.5L310.37-34.5Q310.82-34.3 310.92-33.95L310.92-33.95Q310.02-33.6 309.52-33.02 309.02-32.45 308.52-31.15L308.52-31.15Q307.07-27.45 305.02-19.6L305.02-19.6 317.77-19.55 317.82-18.75Q317.82-18.35 317.67-18.2 317.52-18.05 316.97-18L316.97-18Q316.27-17.95 304.47-17.5L304.47-17.5Q302.17-8.1 302.17-4.95L302.17-4.95Q302.17-3.2 303.02-2.38 303.87-1.55 305.62-1.55L305.62-1.55Q310.72-1.55 317.92-8.3L317.92-8.3ZM384.22-9Q385.01-8.55 385.01-6.95L385.01-6.95Q385.01-5 384.04-3.03 383.06-1.05 381.29 0.25 379.51 1.55 377.17 1.55L377.17 1.55Q373.26 1.55 371.22-2.05 369.17-5.65 369.17-11.25L369.17-11.25Q369.17-14.6 369.87-18.45 370.56-22.3 371.56-25.65L371.56-25.65Q369.56-22.75 367.09-18.78 364.62-14.8 358.56-4.75L358.56-4.75Q357.47-2.9 357.47-2.1L357.47-2.1Q357.47-1.85 357.54-1.63 357.62-1.4 357.62-1.25L357.62-1.25Q357.62-1 357.22-0.9L357.22-0.9Q355.72-0.4 355.24-0.15 354.76 0.1 354.67 0.1L354.67 0.1Q354.37 0.1 354.12-0.4L354.12-0.4Q354.37-0.55 354.49-0.9 354.62-1.25 354.62-2.2L354.62-2.2Q354.62-4.65 353.67-11.58 352.72-18.5 351.72-24.5L351.72-24.5Q348.51-16.45 345.74-11.13 342.97-5.8 339.34-2.35 335.72 1.1 331.17 1.1L331.17 1.1Q328.51 1.1 326.62-0.05 324.72-1.2 323.74-3.18 322.76-5.15 322.76-7.5L322.76-7.5Q322.76-9.6 323.47-11.28 324.17-12.95 325.22-13.9 326.26-14.85 327.26-14.85L327.26-14.85Q327.76-14.85 328.06-14.6L328.06-14.6Q325.51-11.9 325.51-8.2L325.51-8.2Q325.51-5.15 327.09-3.45 328.67-1.75 331.62-1.75L331.62-1.75Q335.47-1.75 338.51-4.75 341.56-7.75 344.24-13.1 346.92-18.45 350.97-28.3L350.97-28.3Q350.92-28.65 350.87-29.05 350.81-29.45 350.72-29.85L350.72-29.85Q350.62-30.4 350.39-32.02 350.17-33.65 350.17-34.45L350.17-34.45Q350.17-35.4 350.67-35.83 351.17-36.25 351.87-36.25L351.87-36.25Q352.67-36.25 353.44-35.77 354.22-35.3 354.22-34.05L354.22-34.05Q354.22-33.75 353.92-31.45L353.92-31.45Q353.51-28.55 353.47-27.65L353.47-27.65Q353.87-25.15 355.17-16.15L355.17-16.15 356.62-6.15Q367.62-24.8 372.62-32.3L372.62-32.3Q374.76-35.5 375.94-36.77 377.12-38.05 378.06-38.05L378.06-38.05Q378.92-38.05 379.62-37.23 380.31-36.4 380.56-35.5L380.56-35.5Q379.22-35.5 377.92-34.33 376.62-33.15 375.51-31L375.51-31Q373.67-27.4 372.76-22.25 371.87-17.1 371.87-12.55L371.87-12.55Q371.87-7.1 373.26-4 374.67-0.9 377.56-0.9L377.56-0.9Q380.06-0.9 381.79-3.1 383.51-5.3 384.22-9L384.22-9ZM408.66-11.95Q409.56-11.8 409.56-10.95L409.56-10.95Q409.56-8.95 406.99-6.28 404.41-3.6 400.91-1.68 397.41 0.25 395.06 0.25L395.06 0.25Q392.81 0.25 391.16-0.93 389.51-2.1 388.64-3.55 387.76-5 387.76-5.7L387.76-5.7Q388.56-8.55 389.51-13.6L389.51-13.6 390.06-16.4Q390.26-17.4 391.51-18.48 392.76-19.55 394.31-20.28 395.86-21 396.81-21L396.81-21Q397.56-21 398.64-20.53 399.71-20.05 400.54-19.05 401.36-18.05 401.36-16.5L401.36-16.5Q401.36-14.7 400.16-13.1 398.96-11.5 396.61-10.5 394.26-9.5 390.96-9.5L390.96-9.5 390.26-6.15Q390.26-5.7 390.79-4.65 391.31-3.6 392.49-2.75 393.66-1.9 395.46-1.9L395.46-1.9Q397.86-1.9 400.51-3.48 403.16-5.05 405.36-7.4 407.56-9.75 408.66-11.95L408.66-11.95ZM396.41-18.95Q395.81-18.95 394.86-18.45 393.91-17.95 393.14-17.2 392.36-16.45 392.21-15.8L392.21-15.8Q391.71-13.55 391.31-11.25L391.31-11.25Q395.16-11.4 397.11-12.78 399.06-14.15 399.06-15.9L399.06-15.9Q399.06-17.15 398.16-18.05 397.26-18.95 396.41-18.95L396.41-18.95ZM427.56-11.95Q428.46-11.8 428.46-10.95L428.46-10.95Q428.46-8.95 425.88-6.28 423.31-3.6 419.81-1.68 416.31 0.25 413.96 0.25L413.96 0.25Q411.71 0.25 410.06-0.93 408.41-2.1 407.53-3.55 406.66-5 406.66-5.7L406.66-5.7Q407.46-8.55 408.41-13.6L408.41-13.6 408.96-16.4Q409.16-17.4 410.41-18.48 411.66-19.55 413.21-20.28 414.76-21 415.71-21L415.71-21Q416.46-21 417.53-20.53 418.61-20.05 419.44-19.05 420.26-18.05 420.26-16.5L420.26-16.5Q420.26-14.7 419.06-13.1 417.86-11.5 415.51-10.5 413.16-9.5 409.86-9.5L409.86-9.5 409.16-6.15Q409.16-5.7 409.69-4.65 410.21-3.6 411.38-2.75 412.56-1.9 414.36-1.9L414.36-1.9Q416.76-1.9 419.41-3.48 422.06-5.05 424.26-7.4 426.46-9.75 427.56-11.95L427.56-11.95ZM415.31-18.95Q414.71-18.95 413.76-18.45 412.81-17.95 412.03-17.2 411.26-16.45 411.11-15.8L411.11-15.8Q410.61-13.55 410.21-11.25L410.21-11.25Q414.06-11.4 416.01-12.78 417.96-14.15 417.96-15.9L417.96-15.9Q417.96-17.15 417.06-18.05 416.16-18.95 415.31-18.95L415.31-18.95ZM444.76-8.3Q445.01-7.95 445.01-7.45L445.01-7.45Q445.01-7.05 444.86-6.75 444.71-6.45 444.36-6L444.36-6Q443.06-4.45 440.73-2.93 438.41-1.4 435.86-0.45 433.31 0.5 431.41 0.5L431.41 0.5Q429.26 0.5 427.83-0.83 426.41-2.15 426.41-4.8L426.41-4.8Q426.41-8.15 428.81-17.4L428.81-17.4 423.51-17.2Q423.41-17.25 423.23-17.38 423.06-17.5 423.01-17.6L423.01-17.6Q423.16-17.85 423.56-18.6 423.96-19.35 424.26-19.65L424.26-19.65 429.41-19.6Q431.06-25.7 433.21-32.15L433.21-32.15Q434.11-32.85 435.51-33.68 436.91-34.5 437.21-34.5L437.21-34.5Q437.66-34.3 437.76-33.95L437.76-33.95Q436.86-33.6 436.36-33.02 435.86-32.45 435.36-31.15L435.36-31.15Q433.91-27.45 431.86-19.6L431.86-19.6 444.61-19.55 444.66-18.75Q444.66-18.35 444.51-18.2 444.36-18.05 443.81-18L443.81-18Q443.11-17.95 431.31-17.5L431.31-17.5Q429.01-8.1 429.01-4.95L429.01-4.95Q429.01-3.2 429.86-2.38 430.71-1.55 432.46-1.55L432.46-1.55Q437.56-1.55 444.76-8.3L444.76-8.3ZM445.35 0.65Q442.95 0.65 441.28-0.5 439.6-1.65 439.6-3.15L439.6-3.15Q439.6-3.95 440.05-4.45 440.5-4.95 441.05-5.05L441.05-5.05Q441.6-3.15 442.85-2.2 444.1-1.25 445.9-1.25L445.9-1.25Q448.15-1.25 449.5-2.53 450.85-3.8 450.85-5.5L450.85-5.5Q450.85-6.75 450.13-7.7 449.4-8.65 447.95-9.9L447.95-9.9Q446.35-11.3 445.58-12.33 444.8-13.35 444.8-14.8L444.8-14.8Q444.8-16.35 445.78-17.75 446.75-19.15 448.28-20 449.8-20.85 451.45-20.85L451.45-20.85Q452.9-20.85 454.13-20.23 455.35-19.6 455.35-18.55L455.35-18.55Q455.35-17.55 454.15-16.45L454.15-16.45Q453.5-17.6 452.55-18.23 451.6-18.85 450.55-18.85L450.55-18.85Q448.95-18.85 448.13-17.68 447.3-16.5 447.3-15.35L447.3-15.35Q447.3-14.4 447.95-13.65 448.6-12.9 450-11.75L450-11.75Q451.7-10.3 452.6-9.15 453.5-8 453.5-6.45L453.5-6.45Q453.5-4.8 452.43-3.15 451.35-1.5 449.48-0.43 447.6 0.65 445.35 0.65L445.35 0.65ZM503.9-2.05Q506-2.05 507.72-2.6 509.45-3.15 510.65-3.95L510.65-3.95Q510.75-3.75 510.75-3.3L510.75-3.3Q510.75-1.75 508.3-0.73 505.85 0.3 502.95 0.3L502.95 0.3Q500.2 0.3 498.87-0.88 497.55-2.05 497.55-4.75L497.55-4.75Q497.55-8.15 499.3-16.9L499.3-16.9Q495.9-17 490.85-17L490.85-17 481.85-16.95Q479.8-9.65 479.25-7.43 478.7-5.2 477.95-1.2L477.95-1.2Q477.85-0.65 477.7-0.53 477.55-0.4 477.05-0.35L477.05-0.35Q476.4-0.3 475.97-0.18 475.55-0.05 474.8 0.35L474.8 0.35 474.5 0.25Q475.45-2.2 476.07-4.33 476.7-6.45 478.25-12.15L478.25-12.15 479.6-16.95 479.35-16.95Q478.85-16.95 478.3-17.57 477.75-18.2 477.75-18.9L477.75-18.9Q477.75-19.15 477.9-19.23 478.05-19.3 478.55-19.3L478.55-19.3 480.25-19.25 480.75-21Q482.15-26.05 482.65-28.18 483.15-30.3 483.15-31.45L483.15-31.45Q483.15-32.45 482.7-32.77 482.25-33.1 481.25-33.1L481.25-33.1Q480.35-33.1 478.9-32.98 477.45-32.85 476.6-32.7L476.6-32.7Q476.4-33.1 476.22-33.48 476.05-33.85 476.05-34.2L476.05-34.2Q476.05-34.8 476.65-34.8L476.65-34.8Q482.75-35.05 484.25-35.18 485.75-35.3 486.05-35.3L486.05-35.3Q486.5-35.3 486.7-35.2 486.9-35.1 486.9-34.8L486.9-34.8Q486.9-34.7 486.8-34.3L486.8-34.3 482.45-19.15Q485.6-19 491.5-19L491.5-19Q495.2-19 499.8-19.1L499.8-19.1Q501.5-27.35 504-35.3L504-35.3Q504.3-36.3 504.9-36.75L504.9-36.75Q505.9-37.45 508.52-38.4 511.15-39.35 512.5-39.35L512.5-39.35Q513.9-39.35 513.9-38L513.9-38Q512.65-38 510.15-37.02 507.65-36.05 506.9-35.1L506.9-35.1Q506.05-34.05 504.7-29.35 503.35-24.65 502.2-19.45L502.2-19.45Q500.15-10.05 500.15-5.3L500.15-5.3Q500.15-4.15 500.4-3.48 500.65-2.8 501.45-2.43 502.25-2.05 503.9-2.05L503.9-2.05ZM541.5-17.65Q542-17.5 542-16.65L542-16.65Q542-15.4 541-14.08 540-12.75 538.27-11.9 536.55-11.05 534.5-11.05L534.5-11.05Q531.75-11.05 529.65-12.55L529.65-12.55Q529.35-11.1 528.9-9.6L528.9-9.6Q528.75-9.05 528.25-7.08 527.75-5.1 527.55-3.55L527.55-3.55Q527.2-2.75 526.15-1.83 525.1-0.9 523.65-0.25 522.2 0.4 520.8 0.4L520.8 0.4Q519.25 0.4 517.8-0.4 516.35-1.2 515.42-2.55 514.5-3.9 514.5-5.55L514.5-5.55Q515.2-7.65 515.65-9.5 516.1-11.35 516.5-13.25L516.5-13.25 517-15.75Q517.25-16.9 518.35-18.03 519.45-19.15 521.02-19.88 522.6-20.6 524.2-20.6L524.2-20.6Q524.8-20.6 525.9-20.4L525.9-20.4Q526.05-21.55 526.42-22 526.8-22.45 527.65-22.45L527.65-22.45Q528.15-22.45 528.8-22.3L528.8-22.3Q528.55-20.9 528.55-19.9L528.55-19.9Q528.55-17 530.3-15 532.05-13 535.05-13L535.05-13Q537.3-13 538.92-14.2 540.55-15.4 541.5-17.65L541.5-17.65ZM525.35-4.4Q525.75-6.4 526.5-8.95L526.5-8.95Q527.5-12.3 527.8-14.35L527.8-14.35Q526.7-15.75 526.3-17.75L526.3-17.75Q526.3-17.95 526.22-18.07 526.15-18.2 525.9-18.25L525.9-18.25Q525.15-18.55 524.2-18.55L524.2-18.55Q522.35-18.55 521-17.55 519.65-16.55 519.3-15.15L519.3-15.15Q519.15-14.55 518.2-10.45L518.2-10.45Q517.75-8.05 517.1-5.7L517.1-5.7Q517.1-3.85 518.35-2.83 519.6-1.8 521-1.8L521-1.8Q522.2-1.8 523.57-2.65 524.95-3.5 525.35-4.4L525.35-4.4ZM573.14-11.55Q573.19-10 571.27-7.15 569.34-4.3 566.54-2.1 563.74 0.1 561.04 0.1L561.04 0.1Q559.14 0.1 557.92-1.13 556.69-2.35 556.69-4.85L556.69-4.85Q556.69-6.9 557.37-9.47 558.04-12.05 559.19-15.6L559.19-15.6Q559.54-16.55 559.84-17.6L559.84-17.6Q559.84-17.75 559.64-17.88 559.44-18 559.24-18L559.24-18Q558.59-18 556.67-16.13 554.74-14.25 552.77-11.83 550.79-9.4 550.14-8.15L550.14-8.15Q549.64-6.6 548.49-1.65L548.49-1.65Q548.29-0.8 548.17-0.5 548.04-0.2 547.74-0.2L547.74-0.2Q547.29-0.2 546.72-0.75 546.14-1.3 546.14-1.85L546.14-1.85Q546.14-2.4 546.64-4.25L546.64-4.25Q548.74-11.95 550.04-17.6L550.04-17.6Q549.74-18 549.29-18L549.29-18Q548.54-18 546.74-16.15 544.94-14.3 542.99-11.48 541.04-8.65 539.79-5.9L539.79-5.9Q539.04-3.45 538.44-0.25L538.44-0.25Q537.94-0.25 537.14-0.6 536.34-0.95 536.34-1.3L536.34-1.3Q536.34-1.7 536.84-3.55L536.84-3.55 541.09-20.1Q541.19-20.55 541.34-20.75 541.49-20.95 541.79-20.95L541.79-20.95Q542.09-20.95 542.82-20.65 543.54-20.35 543.74-20.15L543.74-20.15 543.29-18.55Q543.14-17.95 542.62-16.07 542.09-14.2 541.64-12.2L541.64-12.2Q543.19-14.9 544.87-16.68 546.54-18.45 547.94-19.28 549.34-20.1 550.09-20.1L550.09-20.1Q550.64-20.1 551.49-19.5 552.34-18.9 552.34-18.5L552.34-18.5Q551.89-15.75 551.04-12.3L551.04-12.3Q553.09-15.1 555.94-17.88 558.79-20.65 560.29-20.65L560.29-20.65Q560.99-20.65 561.79-20.1 562.59-19.55 562.64-18.8L562.64-18.8Q561.04-13.85 560.17-10.65 559.29-7.45 559.29-4.9L559.29-4.9Q559.29-3.4 559.79-2.73 560.29-2.05 561.59-2.05L561.59-2.05Q564.64-2.05 567.49-5.38 570.34-8.7 571.84-13.2L571.84-13.2Q572.39-13.2 572.77-12.7 573.14-12.2 573.14-11.55L573.14-11.55ZM591.04-11.95Q591.94-11.8 591.94-10.95L591.94-10.95Q591.94-8.95 589.37-6.28 586.79-3.6 583.29-1.68 579.79 0.25 577.44 0.25L577.44 0.25Q575.19 0.25 573.54-0.93 571.89-2.1 571.02-3.55 570.14-5 570.14-5.7L570.14-5.7Q570.94-8.55 571.89-13.6L571.89-13.6 572.44-16.4Q572.64-17.4 573.89-18.48 575.14-19.55 576.69-20.28 578.24-21 579.19-21L579.19-21Q579.94-21 581.02-20.53 582.09-20.05 582.92-19.05 583.74-18.05 583.74-16.5L583.74-16.5Q583.74-14.7 582.54-13.1 581.34-11.5 578.99-10.5 576.64-9.5 573.34-9.5L573.34-9.5 572.64-6.15Q572.64-5.7 573.17-4.65 573.69-3.6 574.87-2.75 576.04-1.9 577.84-1.9L577.84-1.9Q580.24-1.9 582.89-3.48 585.54-5.05 587.74-7.4 589.94-9.75 591.04-11.95L591.04-11.95ZM578.79-18.95Q578.19-18.95 577.24-18.45 576.29-17.95 575.52-17.2 574.74-16.45 574.59-15.8L574.59-15.8Q574.09-13.55 573.69-11.25L573.69-11.25Q577.54-11.4 579.49-12.78 581.44-14.15 581.44-15.9L581.44-15.9Q581.44-17.15 580.54-18.05 579.64-18.95 578.79-18.95L578.79-18.95ZM595.39-10.5Q594.89-10.5 594.49-10.63 594.09-10.75 594.09-10.95L594.09-10.95 595.74-20.4Q596.04-22.25 596.81-26.83 597.59-31.4 597.99-33.2L597.99-33.2Q598.34-34.95 598.69-35.48 599.04-36 599.89-36L599.89-36Q601.34-36 602.49-35.25L602.49-35.25Q601.94-34.8 601.74-34.45 601.54-34.1 601.34-33.25L601.34-33.25Q599.94-27.75 598.74-22.3 597.54-16.85 596.24-10.75L596.24-10.75Q596.14-10.5 595.39-10.5L595.39-10.5ZM593.44 0.5Q592.39 0.5 591.76-0.18 591.14-0.85 591.14-2.05L591.14-2.05Q591.14-3.45 591.94-4.4 592.74-5.35 594.04-5.35L594.04-5.35Q595.09-5.35 595.71-4.7 596.34-4.05 596.34-2.85L596.34-2.85Q596.34-1.45 595.54-0.48 594.74 0.5 593.44 0.5L593.44 0.5Z" opacity="1" transform="matrix(1,0,0,1,0,0)" fill="#ffffff" class="slogan-text-1" data-fill-palette-color="secondary" id="text-1"></path></svg></g></svg></g></svg></g></svg></g><g transform="matrix(1,0,0,1,130.32925121725657,0)"><svg viewBox="0 0 134.86149756548681 134.86149756548681" height="134.86149756548681" width="134.86149756548681"><g><svg></svg></g><g id="icon-0"><svg viewBox="0 0 134.86149756548681 134.86149756548681" height="134.86149756548681" width="134.86149756548681"><g><path d="M0 67.431c0-37.241 30.19-67.431 67.431-67.431 37.241 0 67.431 30.19 67.431 67.431 0 37.241-30.19 67.431-67.431 67.431-37.241 0-67.431-30.19-67.431-67.431zM67.431 131.916c35.614 0 64.485-28.871 64.485-64.485 0-35.614-28.871-64.485-64.485-64.486-35.614 0-64.485 28.871-64.486 64.486 0 35.614 28.871 64.485 64.486 64.485z" data-fill-palette-color="accent" fill="#ffffff" stroke="transparent"></path><ellipse rx="66.75644129491597" ry="66.75644129491597" cx="67.43074878274341" cy="67.43074878274341" fill="#ffffff" stroke="transparent" stroke-width="0" fill-opacity="1" data-fill-palette-color="accent"></ellipse></g><g transform="matrix(1,0,0,1,26.977665184602316,29.192511680412537)"><svg viewBox="0 0 80.90616719628218 76.47647420466174" height="76.47647420466174" width="80.90616719628218"><g><svg xmlns="http://www.w3.org/2000/svg" xmlns:xlink="http://www.w3.org/1999/xlink" version="1.1" x="0" y="0" viewBox="0.8 5.742 98.18999999999997 92.814" enable-background="new 0 0 100 100" xml:space="preserve" height="76.47647420466174" width="80.90616719628218" class="icon-cg-0" data-fill-palette-color="quaternary" id="cg-0"><path d="M98.283 86.525V69.064l-0.869-1.185v-6.241l-0.789-1.501v-6.559l-0.87-1.185v-9.638l0.395 0.078-0.868-3.396-0.634-0.158v-2.211l-0.867-0.317-1.265-4.187-1.106 4.423-0.711 0.159 0.079 2.606-0.632 0.238-0.316 3.16 0.476 0.078v3.95l-1.502-1.5v-3.714l-1.107-2.054-0.868 1.896v3.713l-2.133 1.027v-6.4l0.396-0.078-0.63-1.579-0.143-2.051-1.123-1.11-0.044-2.038-0.956-0.601-1.132-4.386-1.024 4.527-0.873 0.601 0.042 1.927-0.868 1.233-0.043 2.529-0.317 1.423 0.712 0.156v7.743l-6.4 0.869v-3.713l-0.396 0.158-0.473-3.635-0.712 4.109-0.631-1.105-0.316 1.659v5.786c-0.81 0.913-1.451 2.058-1.849 3.462-0.605-0.125-1.271-0.18-2.006-0.141-0.419 0.022-0.815 0.077-1.199 0.148-2.133 0.108-4.427 0.677-6.268 1.993-1.047-1.186-2.728-2.055-5.38-2.127v-9.424l-0.636-2.667-0.636 2.667v2.414l-2.287 0.128-0.699-3.05-0.508 3.495h-0.699v-2.034l-0.508-0.508c0 0 0-0.953 0-1.588 0-0.636-0.508-2.097-0.508-2.097s-0.636 1.524-0.636 2.223c0 0.7 0 1.462 0 1.462l-0.571 0.191v2.414l-2.543-0.318v-2.16l-0.507-2.288-0.636 2.352v2.288l-2.923-0.382v-2.161l-0.444-2.097-0.699 2.288v1.97l-2.477-0.445-0.382-2.097v-6.289l-0.571 1.843-0.319-1.97-0.825-2.985-0.953 3.049v2.096l-0.509-2.096-0.127 2.224v3.937l-0.571 1.081-1.906-0.445-0.38-1.843-0.382 1.779-0.507 0.509v-2.858l-0.191-2.034-0.444 1.716-1.081-4.573-0.763 4.763-0.381-2.287v6.162l-0.699 1.017v6.708c-0.832-0.487-1.821-0.779-2.984-0.779v-0.932l-0.508-1.101V49.28l-0.424-1.271v-6.691l0.508-0.423-0.34-0.848v-1.102l-0.761-6.437-0.763 4.913-1.187-0.084L15.156 5.742 10.16 37.929 9.482 37.76l-0.424-5.251-1.355 6.183 0.338 0.34-0.17 0.594L7.618 40.64l0.509 0.593v6.776L7.45 49.957v3.642l-1.017 2.288v5.081H3.044l-1.44 2.626v3.389l-0.762 1.101L0.8 72.021l2.16 0.974 5.082-0.931 8.132 2.795c0 0 0-7.115 0-11.096 0-3.982 2.372-6.48 5.082-6.48 0.991 0 2.021 0.262 2.9 0.844v1.63c-0.04 0.017-0.08 0.036-0.121 0.07-0.222 0.188-1.312 1.258-1.503 1.444-0.19 0.186-0.053 0.32 0.15 0.274 0.079-0.018 0.373-0.08 0.716-0.159l-0.132 0.217v0.282c-0.191 0.045-0.343 0.082-0.411 0.098-0.259 0.062-0.209 0.249-0.012 0.313 0.055 0.019 0.216 0.073 0.422 0.142v0.438c-0.262-0.077-0.484-0.142-0.569-0.166-0.256-0.074-0.304 0.112-0.165 0.268 0.073 0.08 0.397 0.447 0.734 0.808v0.603c-0.368-0.398-0.822-0.881-0.937-1.003-0.183-0.194-0.321-0.058-0.279 0.146 0.042 0.202 0.345 1.799 0.504 2.103 0.129 0.248 0.392 0.233 0.483 0.221-0.013 0.088 0.001 0.182 0.046 0.267 0.042 0.08 0.108 0.136 0.182 0.177v1.099c-0.13 0.057-0.257 0.107-0.339 0.114v6.015l0.339-0.085v5.442l1.144 0.381 1.269-0.191 4.449 1.652v0.763l2.031 0.635 1.335-0.381 0.571 0.191 0.763-0.254 2.689 1.016 1.503 0.062 2.668 0.826v1.652l2.542 0.953 0.062-0.027 1.196 0.462c0 0.001 0 0.011 0 0.011l0.014-0.006 0.014 0.006c0 0 0-0.01 0-0.011l2.578-1.011c0 0 0-18.787 0-21.393 0-2.606 2.405-5.986 5.686-6.174 1.635-0.094 2.858 0.207 3.777 0.712-0.356 0.337-0.684 0.715-0.982 1.129-0.25 0.007-0.435 0.08-0.538 0.342-0.098 0.248-0.413 1.253-0.628 1.945-0.021 0.061-0.039 0.124-0.059 0.187-0.062 0.202-0.113 0.366-0.137 0.441-0.018 0.057-0.014 0.095-0.014 0.136-0.058 0.239-0.109 0.484-0.153 0.738-0.001-0.001-0.003-0.004-0.005-0.005-0.059-0.031-0.215-0.054-0.291 0.083l-0.156 0.283-0.162-0.263c-0.084-0.135-0.239-0.105-0.293-0.07-0.055 0.034-0.142 0.174-0.07 0.291 0.031 0.052 0.094 0.16 0.154 0.266l-0.343-0.006c-0.158-0.002-0.217 0.145-0.217 0.21-0.002 0.063 0.069 0.213 0.208 0.216 0.077 0.001 0.255 0.01 0.401 0.018l-0.206 0.35c-0.078 0.136 0.021 0.26 0.077 0.292 0.056 0.033 0.221 0.045 0.291-0.075 0.043-0.074 0.154-0.25 0.236-0.379 0.07 0.123 0.149 0.264 0.184 0.327 0.007 0.014 0.023 0.013 0.033 0.023-0.009 0.203-0.028 0.396-0.028 0.606v0.584c-0.006-0.023-0.014-0.059-0.018-0.075-0.079-0.336-0.321-0.273-0.407-0.019-0.086 0.256-0.782 2.243-0.801 2.688-0.017 0.363 0.285 0.516 0.396 0.561-0.069 0.092-0.114 0.205-0.121 0.331-0.013 0.321 0.235 0.593 0.558 0.606 0.15 0.007 0.286-0.048 0.394-0.137v1.292c-0.234 0.004-0.763 0.041-0.763 0.041v11.478l0.763-0.229c0 3.906 0 6.891 0 6.891l2.811 1.087c0 0.001 0 0.012 0 0.012l0.016-0.006 0.016 0.006c0 0 0-0.011 0-0.013l2.939-1.151c0 0 0-21.428 0-24.397 0-2.973 2.187-6.455 5.908-6.9 0.342-0.041 0.658-0.061 0.958-0.065-0.021 0.317-0.037 0.641-0.037 0.979v0.211c-0.002 0.02-0.012 0.037-0.012 0.058 0 0.025 0.009 0.049 0.012 0.073v0.357c-0.155 0.079-0.367 0.244-0.367 0.569 0 0.256 0.18 0.977 0.367 1.661v3.174l-0.131-0.002c-0.178-0.004-0.244 0.163-0.245 0.237-0.002 0.073 0.08 0.243 0.236 0.245 0.031 0.001 0.087 0.003 0.14 0.006v3.386c-0.205 0.645-0.397 1.302-0.407 1.546-0.018 0.377 0.262 0.549 0.407 0.615v0.099c-0.052 0.09-0.091 0.188-0.094 0.3-0.006 0.129 0.035 0.244 0.094 0.349v1.828c-0.211 0.014-0.415 0.029-0.415 0.029v12.919l0.415-0.14c0 3.388 0 5.68 0 5.68l2.291 0.699v0.745l2.567 1.033 1.303-0.699 5.051 1.652-0.072 1.252 2.607 1.186 1.737-1.04 3.237 1.12 1.819-1.266v-2.291l5.53-3.969 4.346 0.475 1.105-0.315v-2.45L98.283 86.525zM22.165 62.137c0.001-0.051-0.037-0.166-0.158-0.171l-0.264-0.01c0.039-0.077 0.078-0.152 0.099-0.189 0.051-0.094-0.02-0.198-0.064-0.223-0.044-0.023-0.165-0.043-0.223 0.063l-0.121 0.22-0.126-0.205c-0.063-0.103-0.183-0.079-0.226-0.053-0.042 0.025-0.11 0.133-0.053 0.225 0.024 0.039 0.073 0.123 0.119 0.205l-0.266-0.005c-0.122-0.003-0.167 0.112-0.167 0.161 0 0.05 0.054 0.165 0.161 0.167 0.06 0.001 0.197 0.008 0.311 0.014l-0.159 0.271c-0.061 0.104 0.015 0.198 0.058 0.225 0.043 0.024 0.171 0.034 0.225-0.06 0.034-0.057 0.12-0.193 0.183-0.293 0.054 0.095 0.115 0.205 0.141 0.255 0.049 0.095 0.177 0.091 0.222 0.068 0.043-0.022 0.125-0.114 0.069-0.222l-0.152-0.29c0.089 0 0.179 0.001 0.222 0.002C22.102 62.297 22.163 62.186 22.165 62.137zM17.231 62.57c0.097 0.003 0.187-0.026 0.261-0.078 0.029 0.088 0.134 0.329 0.413 0.333 0.342 0.007 1.906-0.437 2.107-0.49 0.2-0.053 0.262-0.237 0.005-0.313-0.254-0.075-1.717-0.517-2.001-0.578-0.26-0.057-0.392 0.079-0.525 0.306-0.068-0.048-0.153-0.076-0.244-0.077-0.248-0.004-0.453 0.193-0.458 0.44C16.787 62.362 16.984 62.566 17.231 62.57zM22.778 58.059c0.1-0.085 0.157-0.199 0-0.257-0.157-0.056-0.256-0.071-0.256-0.071-0.243-0.071-0.344-0.1-0.329 0.144 0.015 0.242 0.086 0.343 0.213 0.371C22.535 58.273 22.678 58.144 22.778 58.059zM19.67 65.987c0.049-0.084 0.068-0.176 0.06-0.265 0.091 0.017 0.351 0.044 0.493-0.198 0.173-0.296 0.554-1.875 0.605-2.076s-0.08-0.344-0.272-0.159c-0.191 0.186-1.291 1.245-1.484 1.463-0.177 0.197-0.124 0.378 0.009 0.606-0.074 0.037-0.142 0.096-0.186 0.174-0.125 0.214-0.053 0.489 0.16 0.615C19.27 66.272 19.544 66.202 19.67 65.987zM18.134 65.623c0.127 0.109 0.198 0.003 0.224-0.127s0.066-0.316-0.022-0.414c-0.088-0.098-0.21-0.109-0.427-0.002-0.219 0.106-0.145 0.179 0.037 0.354C17.945 65.434 18.007 65.515 18.134 65.623zM21.802 66.397c0.004-0.091-0.019-0.176-0.061-0.248 0.234-0.118 0.378-0.241 0.337-0.504-0.044-0.287-0.394-1.773-0.454-2.034-0.062-0.26-0.248-0.211-0.315-0.013-0.065 0.197-0.604 1.729-0.617 2.071-0.013 0.28 0.22 0.399 0.306 0.435-0.056 0.07-0.09 0.157-0.094 0.254-0.011 0.249 0.182 0.458 0.43 0.47C21.583 66.839 21.792 66.646 21.802 66.397zM20.128 63.033c0.146-0.147 0.103-0.338-0.156-0.272-0.259 0.064-1.74 0.43-2.018 0.52-0.251 0.084-0.297 0.267-0.296 0.529-0.083-0.004-0.169 0.015-0.249 0.058-0.216 0.123-0.291 0.397-0.169 0.613 0.122 0.217 0.397 0.292 0.613 0.171 0.084-0.049 0.148-0.118 0.185-0.201 0.069 0.061 0.282 0.215 0.525 0.077C18.861 64.358 19.982 63.182 20.128 63.033zM22.445 66.223c-0.127 0.034-0.193 0.215-0.243 0.336-0.048 0.123-0.047 0.25 0.118 0.229 0.167-0.022 0.262-0.056 0.262-0.056 0.249-0.049 0.35-0.07 0.225-0.279C22.681 66.244 22.572 66.188 22.445 66.223zM16.915 60.983c0 0-0.034 0.094-0.059 0.258-0.024 0.167 0.103 0.17 0.225 0.124 0.124-0.047 0.304-0.111 0.342-0.238 0.035-0.127-0.019-0.236-0.226-0.364C16.992 60.635 16.969 60.736 16.915 60.983zM18.492 59.343c0.095-0.093 0.103-0.216-0.012-0.429s-0.185-0.138-0.354 0.051c0 0-0.078 0.064-0.181 0.196-0.104 0.131 0.004 0.198 0.135 0.218C18.209 59.399 18.398 59.435 18.492 59.343zM20.35 66.163c-0.017-0.013-0.025-0.038-0.045-0.045-0.028-0.009-0.055 0.006-0.083 0.007-0.008 0.002-0.016 0-0.024 0.002-0.042 0.007-0.085 0.026-0.127 0.06-0.054 0.034-0.106 0.074-0.15 0.108-0.103 0.08-0.165 0.191-0.01 0.257l0.025-0.002c0.046 0.025 0.112 0.046 0.208 0.07 0 0 0.093 0.037 0.257 0.068 0.164 0.03 0.172-0.097 0.13-0.223-0.021-0.06-0.046-0.133-0.08-0.198C20.429 66.216 20.391 66.186 20.35 66.163zM16.961 62.954c-0.243-0.02-0.216 0.081-0.149 0.325 0 0 0.012 0.099 0.067 0.258 0.054 0.158 0.169 0.103 0.257 0.004 0.086-0.098 0.219-0.238 0.192-0.367S17.203 62.973 16.961 62.954zM22.173 61.043c0.157-0.137 1.397-1.188 1.582-1.476 0.152-0.236 0.01-0.455-0.047-0.528 0.084-0.032 0.158-0.091 0.21-0.174 0.136-0.208 0.075-0.484-0.134-0.62-0.208-0.135-0.486-0.075-0.621 0.132-0.05 0.077-0.071 0.162-0.071 0.247-0.263-0.016-0.449 0.019-0.547 0.264-0.107 0.271-0.557 1.73-0.636 1.984C21.831 61.127 22.017 61.181 22.173 61.043zM17.353 59.88c-0.12 0.218-0.038 0.49 0.181 0.609 0.084 0.046 0.178 0.061 0.267 0.051-0.015 0.091-0.033 0.352 0.213 0.485 0.3 0.164 1.893 0.49 2.096 0.536 0.203 0.044 0.341-0.091 0.149-0.275-0.192-0.188-1.287-1.251-1.511-1.438-0.203-0.169-0.383-0.109-0.606 0.031-0.04-0.073-0.101-0.139-0.181-0.181C17.743 59.58 17.47 59.662 17.353 59.88zM19.672 58.372c-0.13-0.212-0.408-0.278-0.62-0.146-0.21 0.13-0.276 0.406-0.146 0.618 0.051 0.083 0.124 0.144 0.207 0.178-0.058 0.071-0.205 0.288-0.058 0.526 0.181 0.292 1.398 1.369 1.551 1.509 0.153 0.14 0.341 0.091 0.268-0.165-0.075-0.256-0.493-1.726-0.595-1.998-0.091-0.247-0.276-0.285-0.541-0.274C19.74 58.536 19.718 58.449 19.672 58.372zM20.719 58.715c0 0.342 0.471 1.898 0.528 2.098 0.058 0.201 0.243 0.257 0.314 0 0.071-0.256 0.484-1.726 0.542-2.011 0.052-0.262-0.085-0.391-0.314-0.52 0.046-0.07 0.072-0.154 0.072-0.244 0-0.249-0.201-0.45-0.449-0.45-0.248 0-0.449 0.201-0.449 0.45 0 0.095 0.031 0.187 0.083 0.259C20.957 58.327 20.719 58.436 20.719 58.715zM20.562 57.874c0.015-0.243-0.086-0.215-0.329-0.144 0 0-0.1 0.016-0.256 0.071-0.157 0.058-0.1 0.172 0 0.257 0.099 0.085 0.243 0.215 0.372 0.187C20.476 58.217 20.549 58.116 20.562 57.874zM52.312 59.562c-0.169-0.274-0.527-0.359-0.802-0.19-0.272 0.169-0.359 0.527-0.188 0.801 0.065 0.107 0.159 0.185 0.266 0.23-0.074 0.094-0.263 0.374-0.071 0.683 0.23 0.379 1.809 1.773 2.007 1.954 0.2 0.183 0.443 0.12 0.347-0.212-0.095-0.331-0.64-2.235-0.771-2.589-0.119-0.321-0.359-0.372-0.7-0.358C52.401 59.771 52.376 59.66 52.312 59.562zM50.786 60.818c0.121-0.119 0.132-0.278-0.018-0.556-0.148-0.276-0.24-0.176-0.459 0.067 0 0-0.1 0.083-0.233 0.254-0.136 0.168 0.005 0.256 0.173 0.282C50.419 60.893 50.663 60.938 50.786 60.818zM53.468 58.914c0.019-0.314-0.111-0.276-0.426-0.186 0 0-0.128 0.019-0.332 0.094-0.204 0.074-0.13 0.222 0 0.332 0.128 0.11 0.314 0.279 0.48 0.241C53.356 59.358 53.449 59.229 53.468 58.914zM49.028 66.261c0.113-0.128 0.282-0.31 0.247-0.478-0.032-0.166-0.162-0.261-0.475-0.286-0.313-0.024-0.28 0.106-0.192 0.423 0 0 0.017 0.13 0.088 0.335C48.764 66.459 48.913 66.389 49.028 66.261zM49.306 61.515c-0.154 0.283-0.048 0.637 0.236 0.79 0.108 0.06 0.229 0.079 0.346 0.065-0.021 0.118-0.044 0.457 0.275 0.629 0.392 0.212 2.453 0.637 2.716 0.695 0.263 0.057 0.443-0.119 0.195-0.359-0.249-0.239-1.669-1.618-1.959-1.86-0.262-0.22-0.495-0.143-0.785 0.04-0.053-0.097-0.131-0.179-0.234-0.234C49.813 61.127 49.459 61.231 49.306 61.515zM49.151 65.002c0.126 0.003 0.241-0.035 0.339-0.102 0.036 0.114 0.171 0.425 0.533 0.433 0.445 0.008 2.472-0.565 2.731-0.636 0.259-0.069 0.338-0.309 0.007-0.406-0.33-0.099-2.226-0.67-2.595-0.75-0.335-0.074-0.506 0.101-0.679 0.397-0.089-0.062-0.2-0.1-0.314-0.102-0.323-0.005-0.588 0.251-0.594 0.572S48.83 64.997 49.151 65.002zM53.353 69.857c-0.03-0.11-0.085-0.18-0.16-0.218-0.02-0.014-0.037-0.031-0.06-0.039-0.127-0.04-0.244-0.007-0.372 0.134-0.044 0.032-0.087 0.065-0.124 0.095-0.133 0.104-0.215 0.249-0.014 0.332l0.031-0.003c0.06 0.034 0.145 0.062 0.271 0.092 0 0 0.119 0.05 0.334 0.089 0.213 0.038 0.224-0.126 0.167-0.288C53.406 69.992 53.381 69.924 53.353 69.857zM53.672 60.005c0 0.444 0.609 2.461 0.684 2.719 0.073 0.259 0.314 0.333 0.407 0 0.092-0.332 0.628-2.236 0.702-2.606 0.068-0.337-0.111-0.506-0.408-0.673 0.061-0.092 0.095-0.2 0.095-0.317 0-0.322-0.263-0.583-0.584-0.583-0.32 0-0.581 0.261-0.581 0.583 0 0.125 0.038 0.241 0.106 0.336C53.979 59.503 53.672 59.642 53.672 60.005zM56.339 59.154c0.129-0.11 0.203-0.258 0-0.332-0.204-0.075-0.333-0.094-0.333-0.094-0.314-0.091-0.444-0.129-0.425 0.186 0.019 0.314 0.11 0.444 0.276 0.481C56.024 59.434 56.209 59.265 56.339 59.154zM52.311 69.43c0.065-0.107 0.089-0.229 0.078-0.344 0.117 0.023 0.454 0.058 0.638-0.255 0.225-0.384 0.718-2.431 0.786-2.691 0.066-0.263-0.104-0.445-0.352-0.206-0.249 0.241-1.674 1.613-1.925 1.896-0.229 0.256-0.159 0.49 0.013 0.785-0.098 0.049-0.183 0.126-0.242 0.227-0.163 0.277-0.069 0.635 0.21 0.797C51.794 69.801 52.15 69.707 52.311 69.43zM48.741 62.945c0 0-0.045 0.122-0.077 0.335-0.031 0.215 0.134 0.221 0.292 0.159 0.161-0.062 0.395-0.144 0.443-0.309 0.045-0.163-0.024-0.307-0.293-0.473C48.839 62.492 48.811 62.624 48.741 62.945zM52.904 65.602c0.188-0.192 0.135-0.438-0.199-0.354-0.337 0.083-2.259 0.556-2.617 0.674-0.326 0.108-0.386 0.346-0.383 0.688-0.109-0.008-0.221 0.016-0.322 0.073-0.28 0.158-0.379 0.516-0.221 0.795 0.159 0.279 0.515 0.377 0.794 0.219 0.109-0.062 0.191-0.154 0.239-0.26 0.091 0.08 0.366 0.279 0.682 0.101C51.262 67.319 52.714 65.794 52.904 65.602zM50.027 68.253c-0.283 0.139-0.188 0.233 0.049 0.461 0 0 0.079 0.104 0.245 0.244 0.164 0.141 0.256 0.003 0.289-0.163 0.032-0.168 0.085-0.412-0.028-0.538C50.469 68.132 50.31 68.114 50.027 68.253zM61.496 64.015c0 0-0.051 0.139-0.088 0.383-0.036 0.244 0.153 0.25 0.333 0.18 0.183-0.068 0.449-0.164 0.501-0.351 0.054-0.186-0.025-0.349-0.329-0.537C61.607 63.501 61.574 63.649 61.496 64.015zM61.963 66.354c0.143 0.004 0.275-0.039 0.385-0.113 0.041 0.128 0.194 0.482 0.608 0.49 0.504 0.009 2.81-0.645 3.105-0.722 0.296-0.08 0.384-0.352 0.008-0.465-0.376-0.111-2.532-0.761-2.95-0.852-0.382-0.084-0.577 0.116-0.772 0.451-0.104-0.07-0.227-0.111-0.36-0.113-0.364-0.008-0.667 0.284-0.673 0.649C61.306 66.047 61.596 66.35 61.963 66.354zM66.872 59.431c0.02-0.357-0.126-0.314-0.483-0.21 0 0-0.148 0.021-0.38 0.105-0.229 0.084-0.146 0.251 0 0.378 0.149 0.127 0.358 0.316 0.549 0.273C66.746 59.936 66.851 59.788 66.872 59.431zM63.82 61.598c0.139-0.136 0.152-0.317-0.018-0.632-0.169-0.316-0.273-0.203-0.522 0.073 0 0-0.114 0.097-0.268 0.29-0.151 0.193 0.009 0.291 0.199 0.322C63.404 61.682 63.682 61.731 63.82 61.598zM62.959 70.053c-0.321 0.158-0.212 0.266 0.057 0.523 0 0 0.089 0.118 0.277 0.278 0.187 0.159 0.292 0.003 0.329-0.186 0.036-0.191 0.098-0.467-0.031-0.612C63.46 69.914 63.28 69.895 62.959 70.053zM66.232 67.037c0.213-0.218 0.151-0.498-0.229-0.402-0.382 0.096-2.567 0.633-2.976 0.768-0.371 0.122-0.438 0.392-0.437 0.781-0.123-0.008-0.252 0.019-0.366 0.085-0.319 0.179-0.43 0.583-0.25 0.902 0.181 0.318 0.585 0.43 0.903 0.251 0.124-0.07 0.217-0.176 0.273-0.297 0.102 0.091 0.413 0.318 0.771 0.113C64.363 68.991 66.015 67.256 66.232 67.037zM66.735 71.863c-0.036-0.12-0.097-0.195-0.182-0.237-0.021-0.014-0.039-0.032-0.062-0.04-0.143-0.046-0.274-0.009-0.42 0.149-0.052 0.037-0.101 0.074-0.144 0.108-0.151 0.121-0.245 0.284-0.015 0.379l0.034-0.003c0.068 0.038 0.166 0.068 0.308 0.104 0 0 0.137 0.058 0.379 0.102 0.243 0.044 0.255-0.144 0.192-0.327C66.802 72.026 66.771 71.943 66.735 71.863zM65.557 71.392c0.072-0.123 0.101-0.26 0.089-0.392 0.134 0.026 0.517 0.065 0.726-0.291 0.256-0.436 0.815-2.763 0.892-3.061 0.076-0.296-0.117-0.507-0.399-0.234s-1.903 1.835-2.188 2.154c-0.262 0.293-0.183 0.56 0.013 0.896-0.11 0.055-0.208 0.143-0.274 0.257-0.186 0.315-0.079 0.723 0.237 0.907C64.967 71.812 65.372 71.707 65.557 71.392zM65.56 60.167c-0.192-0.312-0.601-0.408-0.913-0.216-0.312 0.19-0.407 0.599-0.216 0.91 0.076 0.123 0.182 0.211 0.304 0.262-0.085 0.105-0.301 0.426-0.083 0.777 0.266 0.429 2.058 2.017 2.286 2.224 0.226 0.207 0.501 0.134 0.393-0.242-0.108-0.379-0.726-2.542-0.877-2.945-0.135-0.367-0.408-0.423-0.796-0.406C65.66 60.405 65.629 60.279 65.56 60.167zM62.139 62.389c-0.176 0.321-0.055 0.725 0.268 0.899 0.124 0.066 0.262 0.09 0.395 0.073-0.023 0.134-0.05 0.521 0.312 0.717 0.445 0.24 2.792 0.723 3.091 0.789 0.299 0.067 0.502-0.134 0.22-0.407-0.283-0.273-1.896-1.842-2.227-2.116-0.3-0.25-0.564-0.163-0.894 0.044-0.06-0.109-0.148-0.203-0.267-0.267C62.716 61.947 62.313 62.067 62.139 62.389zM62.104 67.245c-0.037-0.191-0.184-0.298-0.541-0.327-0.356-0.026-0.316 0.122-0.218 0.48 0 0 0.018 0.148 0.098 0.381s0.25 0.151 0.379 0.007C61.949 67.641 62.143 67.435 62.104 67.245zM48.784 85.235l1.609-0.677V70.541c0 0-1.397-1.526-1.609-1.992V85.235zM51.62 84.239l1.652-0.634V71.577c0 0-0.805-0.169-1.652-0.678V84.239zM61.743 89.365l1.608-0.763V72.823c0 0-1.396-1.716-1.608-2.24V89.365zM64.58 88.244l1.652-0.714V73.99c0 0-0.806-0.19-1.652-0.763V88.244zM17.148 65.606v9.337l1.387-0.37v-7.666C17.994 66.517 17.669 66.332 17.148 65.606zM19.383 74.399l1.424-0.347v-6.579c0 0-0.759-0.067-1.424-0.37V74.399zM21.52 67.549v6.278l0.857-0.217-0.042-6.085C22.12 67.525 21.52 67.549 21.52 67.549z" fill="#000000" data-fill-palette-color="quaternary"></path></svg></g></svg></g></svg></g></svg></g><g></g></svg></g><defs></defs></svg><rect width="395.52" height="216.45496294628958" fill="none" stroke="none" visibility="hidden"></rect></g></svg></g></svg>