<svg xmlns="http://www.w3.org/2000/svg" version="1.1" xmlns:xlink="http://www.w3.org/1999/xlink" xmlns:svgjs="http://svgjs.dev/svgjs" width="1000" height="274" viewBox="0 0 2000 474"><g transform="matrix(1,0,0,1,-1.2121212121212466,-0.22607697666521176)"><svg viewBox="0 0 396 94" data-background-color="#ffffff" preserveAspectRatio="xMidYMid meet" height="474" width="2000" xmlns="http://www.w3.org/2000/svg" xmlns:xlink="http://www.w3.org/1999/xlink"><g id="tight-bounds" transform="matrix(1,0,0,1,0.2400000000000091,0.044833830815463216)"><svg viewBox="0 0 395.52 93.91033233836909" height="93.91033233836909" width="395.52"><g><svg viewBox="0 0 507.35087172088174 120.46290699704002" height="93.91033233836909" width="395.52"><g transform="matrix(1,0,0,1,109.85327172088184,37.22478676875683)"><svg viewBox="0 0 397.4975999999999 46.013333459526365" height="46.013333459526365" width="397.4975999999999"><g id="textblocktransform"><svg viewBox="0 0 397.4975999999999 46.013333459526365" height="46.013333459526365" width="397.4975999999999" id="textblock"><g><rect width="397.4975999999999" height="2.160482713817926" x="0" y="26.5022456888074" fill="#2e4166" opacity="1" stroke-width="0" stroke="transparent" fill-opacity="1" class="rect-qz-0" data-fill-palette-color="primary" rx="1%" id="qz-0" data-palette-color="#2e4166"></rect></g><g transform="matrix(1,0,0,1,0.9887999999999693,0)"><svg viewBox="0 0 395.52 23.95717442907424" height="23.95717442907424" width="395.52"><g transform="matrix(1,0,0,1,0,0)"><svg width="395.52" viewBox="1.64 -35.64 596.5 36.13" height="23.95717442907424" data-palette-color="#2e4166"><path d="M1.64 0L1.64 0Q1.78-0.61 1.89-1.48 2-2.34 2-3.27L2-3.27Q2-4.13 1.88-4.94 1.76-5.76 1.64-6.35L1.64-6.35Q2.86-6.35 3.7-6.52 4.54-6.69 5.08-7.09 5.62-7.5 5.85-8.19 6.08-8.89 6.08-9.94L6.08-9.94Q6.08-11.99 5.97-13.45 5.86-14.92 5.65-15.87 5.44-16.82 5.13-17.32 4.81-17.82 4.39-17.94L4.39-17.94Q4.83-18.09 5.15-18.47 5.47-18.85 5.68-19.7 5.88-20.56 5.98-21.98 6.08-23.41 6.08-25.66L6.08-25.66Q6.08-26.64 5.8-27.25 5.52-27.86 5-28.21 4.49-28.56 3.76-28.69 3.03-28.81 2.12-28.81L2.12-28.81 1.64-28.81Q1.76-29.39 1.88-30.16 2-30.93 2-31.79L2-31.79Q2-32.69 1.89-33.62 1.78-34.55 1.64-35.16L1.64-35.16Q2.1-34.99 3.09-34.84 4.08-34.69 5.36-34.57 6.64-34.45 8.11-34.38 9.57-34.3 10.96-34.3L10.96-34.3Q12.35-34.3 13.81-34.38 15.26-34.45 16.54-34.57 17.82-34.69 18.82-34.84 19.82-34.99 20.31-35.16L20.31-35.16Q20.17-34.55 20.06-33.62 19.95-32.69 19.95-31.79L19.95-31.79Q19.95-30.93 20.07-30.16 20.19-29.39 20.31-28.81L20.31-28.81 19.85-28.81Q19.02-28.81 18.3-28.69 17.58-28.56 17.04-28.21 16.5-27.86 16.19-27.25 15.87-26.64 15.87-25.66L15.87-25.66Q15.87-23.97 15.92-22.8 15.97-21.63 16.09-20.78L16.09-20.78Q17.48-20.51 19.26-20.39 21.04-20.26 22.95-20.26L22.95-20.26Q24.85-20.26 26.62-20.4 28.39-20.53 29.79-20.8L29.79-20.8Q29.91-21.66 29.96-22.84 30-24.02 30-25.66L30-25.66Q30-26.64 29.72-27.25 29.44-27.86 28.93-28.21 28.42-28.56 27.69-28.69 26.95-28.81 26.05-28.81L26.05-28.81 25.56-28.81Q25.68-29.39 25.81-30.16 25.93-30.93 25.93-31.79L25.93-31.79Q25.93-32.69 25.82-33.62 25.71-34.55 25.56-35.16L25.56-35.16Q26.03-34.99 27.01-34.84 28-34.69 29.28-34.57 30.57-34.45 32.03-34.38 33.5-34.3 34.89-34.3L34.89-34.3Q36.28-34.3 37.73-34.38 39.18-34.45 40.47-34.57 41.75-34.69 42.75-34.84 43.75-34.99 44.24-35.16L44.24-35.16Q44.09-34.55 43.98-33.62 43.87-32.69 43.87-31.79L43.87-31.79Q43.87-30.93 43.99-30.16 44.12-29.39 44.24-28.81L44.24-28.81 43.77-28.81Q42.94-28.81 42.22-28.69 41.5-28.56 40.97-28.21 40.43-27.86 40.11-27.25 39.79-26.64 39.79-25.66L39.79-25.66Q39.79-23.41 39.89-21.98 39.99-20.56 40.2-19.7 40.41-18.85 40.72-18.47 41.04-18.09 41.48-17.94L41.48-17.94Q41.06-17.82 40.75-17.32 40.43-16.82 40.22-15.87 40.01-14.92 39.9-13.45 39.79-11.99 39.79-9.94L39.79-9.94Q39.79-8.89 40.08-8.19 40.36-7.5 40.92-7.09 41.48-6.69 42.31-6.52 43.14-6.35 44.24-6.35L44.24-6.35Q44.12-5.76 43.99-4.94 43.87-4.13 43.87-3.27L43.87-3.27Q43.87-2.34 43.98-1.48 44.09-0.61 44.24 0L44.24 0Q43.53-0.15 42.46-0.26 41.38-0.37 40.11-0.45 38.84-0.54 37.49-0.57 36.13-0.61 34.89-0.61L34.89-0.61Q33.64-0.61 32.29-0.57 30.93-0.54 29.66-0.45 28.39-0.37 27.32-0.26 26.25-0.15 25.56 0L25.56 0Q25.71-0.61 25.82-1.48 25.93-2.34 25.93-3.27L25.93-3.27Q25.93-4.13 25.81-4.94 25.68-5.76 25.56-6.35L25.56-6.35Q26.78-6.35 27.62-6.52 28.47-6.69 29-7.09 29.54-7.5 29.77-8.19 30-8.89 30-9.94L30-9.94Q30-12.84 29.79-14.65L29.79-14.65Q28.39-14.94 26.64-15.1 24.88-15.26 22.95-15.26L22.95-15.26Q21.12-15.26 19.31-15.11 17.5-14.97 16.09-14.7L16.09-14.7Q15.87-12.89 15.87-9.94L15.87-9.94Q15.87-8.89 16.15-8.19 16.43-7.5 16.99-7.09 17.55-6.69 18.38-6.52 19.21-6.35 20.31-6.35L20.31-6.35Q20.19-5.76 20.07-4.94 19.95-4.13 19.95-3.27L19.95-3.27Q19.95-2.34 20.06-1.48 20.17-0.61 20.31 0L20.31 0Q19.6-0.15 18.53-0.26 17.46-0.37 16.19-0.45 14.92-0.54 13.56-0.57 12.21-0.61 10.96-0.61L10.96-0.61Q9.72-0.61 8.36-0.57 7.01-0.54 5.74-0.45 4.47-0.37 3.39-0.26 2.32-0.15 1.64 0ZM48.26-6.54L48.26-6.54Q48.73-7.18 49.12-9.14 49.51-11.11 49.51-14.5L49.51-14.5Q49.51-16.04 49.09-16.86 48.68-17.68 47.9-17.94L47.9-17.94Q48.34-18.07 48.65-18.51 48.97-18.95 49.19-19.58 49.41-20.21 49.51-20.98 49.61-21.75 49.61-22.56L49.61-22.56Q49.61-24.66 49.25-26.28 48.9-27.91 48.26-28.61L48.26-28.61 48.46-28.61Q49.29-28.61 50.3-28.98 51.32-29.35 52.37-29.94 53.42-30.54 54.42-31.29 55.42-32.03 56.21-32.81 57-33.59 57.5-34.34 58.01-35.08 58.05-35.64L58.05-35.64Q58.44-35.42 59.26-35.19 60.08-34.96 61.22-34.75 62.35-34.55 63.75-34.42 65.16-34.3 66.7-34.3L66.7-34.3Q68.23-34.3 69.64-34.42 71.04-34.55 72.18-34.75 73.31-34.96 74.13-35.19 74.95-35.42 75.34-35.64L75.34-35.64Q75.39-35.08 75.89-34.34 76.39-33.59 77.18-32.81 77.98-32.03 78.98-31.29 79.98-30.54 81.03-29.94 82.08-29.35 83.09-28.98 84.1-28.61 84.93-28.61L84.93-28.61 85.13-28.61Q84.49-27.91 84.14-26.28 83.79-24.66 83.79-22.56L83.79-22.56Q83.79-21.75 83.88-20.98 83.98-20.21 84.2-19.58 84.42-18.95 84.74-18.51 85.06-18.07 85.5-17.94L85.5-17.94Q84.71-17.68 84.3-16.86 83.88-16.04 83.88-14.5L83.88-14.5Q83.88-11.11 84.27-9.14 84.67-7.18 85.13-6.54L85.13-6.54Q83.81-6.4 82.25-5.71 80.69-5.03 79.28-4.03 77.88-3.03 76.83-1.84 75.78-0.66 75.49 0.49L75.49 0.49Q75.1 0.27 74.25 0.07 73.41-0.12 72.25-0.28 71.09-0.44 69.66-0.52 68.23-0.61 66.7-0.61L66.7-0.61Q65.16-0.61 63.73-0.52 62.3-0.44 61.14-0.28 59.98-0.12 59.14 0.07 58.3 0.27 57.91 0.49L57.91 0.49Q57.61-0.66 56.56-1.84 55.52-3.03 54.11-4.03 52.71-5.03 51.14-5.71 49.58-6.4 48.26-6.54ZM66.7-5.37L66.7-5.37Q68.06-5.37 69.25-5.85 70.43-6.32 71.3-7.63 72.17-8.94 72.67-11.22 73.17-13.5 73.17-17.14L73.17-17.14Q73.17-20 72.91-22.02 72.65-24.05 72.2-25.43 71.75-26.81 71.13-27.62 70.51-28.44 69.79-28.87 69.06-29.3 68.28-29.42 67.5-29.54 66.7-29.54L66.7-29.54Q65.89-29.54 65.11-29.42 64.33-29.3 63.61-28.87 62.89-28.44 62.27-27.62 61.64-26.81 61.19-25.43 60.74-24.05 60.48-22.02 60.23-20 60.23-17.14L60.23-17.14Q60.23-13.5 60.73-11.22 61.23-8.94 62.09-7.63 62.96-6.32 64.15-5.85 65.33-5.37 66.7-5.37ZM90.16 0L90.16 0Q90.3-0.61 90.41-1.48 90.52-2.34 90.52-3.27L90.52-3.27Q90.52-4.13 90.4-4.94 90.28-5.76 90.16-6.35L90.16-6.35Q91.77-6.35 92.73-6.73 93.7-7.1 94.21-8 94.72-8.89 94.88-10.38 95.04-11.87 95.04-14.06L95.04-14.06Q95.04-15.75 94.62-16.78 94.21-17.82 93.65-17.94L93.65-17.94Q94.14-18.09 94.5-18.73 94.87-19.36 95.1-20.37 95.33-21.39 95.45-22.73 95.58-24.07 95.58-25.66L95.58-25.66Q95.58-26.64 95.26-27.25 94.94-27.86 94.4-28.21 93.87-28.56 93.15-28.69 92.43-28.81 91.6-28.81L91.6-28.81 91.13-28.81Q91.25-29.39 91.38-30.16 91.5-30.93 91.5-31.79L91.5-31.79Q91.5-32.69 91.39-33.62 91.28-34.55 91.13-35.16L91.13-35.16Q91.57-34.99 92.46-34.84 93.35-34.69 94.51-34.57 95.67-34.45 96.97-34.38 98.26-34.3 99.51-34.3L99.51-34.3Q100.92-34.3 102.18-34.38 103.44-34.45 104.49-34.57 105.54-34.69 106.33-34.84 107.12-34.99 107.61-35.16L107.61-35.16Q107.64-34.4 108-33.14 108.37-31.88 108.95-30.37 109.54-28.86 110.29-27.2 111.03-25.54 111.8-24 112.57-22.46 113.31-21.14 114.06-19.82 114.64-18.99L114.64-18.99Q115.23-19.82 115.97-21.14 116.72-22.46 117.49-24 118.26-25.54 119-27.2 119.75-28.86 120.33-30.37 120.92-31.88 121.28-33.14 121.65-34.4 121.67-35.16L121.67-35.16Q122.14-34.99 122.94-34.83 123.75-34.67 124.8-34.56 125.85-34.45 127.12-34.38 128.39-34.3 129.78-34.3L129.78-34.3Q131.03-34.3 132.32-34.38 133.61-34.45 134.77-34.57 135.93-34.69 136.82-34.84 137.71-34.99 138.15-35.16L138.15-35.16Q138.01-34.55 137.9-33.62 137.79-32.69 137.79-31.79L137.79-31.79Q137.79-30.93 137.91-30.16 138.03-29.39 138.15-28.81L138.15-28.81 137.69-28.81Q136.86-28.81 136.14-28.69 135.42-28.56 134.88-28.21 134.35-27.86 134.03-27.25 133.71-26.64 133.71-25.66L133.71-25.66Q133.71-24.07 133.82-22.73 133.93-21.39 134.17-20.37 134.42-19.36 134.79-18.73 135.15-18.09 135.64-17.94L135.64-17.94Q135.08-17.82 134.66-16.78 134.25-15.75 134.25-14.06L134.25-14.06Q134.25-12.87 134.5-11.89 134.76-10.91 134.93-9.94L134.93-9.94Q135.1-8.91 135.42-8.23 135.74-7.54 136.29-7.13 136.84-6.71 137.65-6.53 138.47-6.35 139.62-6.35L139.62-6.35Q139.5-5.76 139.37-4.94 139.25-4.13 139.25-3.27L139.25-3.27Q139.25-2.34 139.36-1.48 139.47-0.61 139.62 0L139.62 0Q138.91-0.15 137.84-0.26 136.76-0.37 135.49-0.45 134.22-0.54 132.87-0.57 131.51-0.61 130.27-0.61L130.27-0.61Q129.02-0.61 127.67-0.57 126.31-0.54 125.04-0.45 123.77-0.37 122.7-0.26 121.63-0.15 120.94 0L120.94 0Q121.09-0.61 121.2-1.48 121.31-2.34 121.31-3.27L121.31-3.27Q121.31-4.13 121.19-4.94 121.06-5.76 120.94-6.35L120.94-6.35Q123.38-6.35 124.51-7.19 125.63-8.03 125.63-10.13L125.63-10.13Q125.63-11.82 125.54-13.65 125.46-15.48 125.3-17.15 125.14-18.82 124.91-20.2 124.68-21.58 124.38-22.36L124.38-22.36Q123.85-22.36 123.18-21.58 122.5-20.8 121.78-19.58 121.06-18.36 120.38-16.89 119.7-15.43 119.16-14.04 118.62-12.65 118.28-11.52 117.94-10.4 117.91-9.89L117.91-9.89Q117.23-10.11 116.38-10.18 115.52-10.25 114.64-10.25L114.64-10.25Q113.76-10.25 112.91-10.18 112.06-10.11 111.37-9.89L111.37-9.89Q111.35-10.38 111.01-11.47 110.66-12.57 110.13-13.93 109.59-15.28 108.92-16.72 108.25-18.16 107.54-19.35 106.83-20.53 106.15-21.31 105.46-22.09 104.93-22.12L104.93-22.12Q104.68-21.34 104.52-19.97 104.37-18.6 104.28-16.94 104.19-15.28 104.17-13.46 104.15-11.65 104.15-9.94L104.15-9.94Q104.15-8.89 104.43-8.19 104.71-7.5 105.28-7.09 105.85-6.69 106.73-6.52 107.61-6.35 108.83-6.35L108.83-6.35Q108.71-5.76 108.59-4.94 108.47-4.13 108.47-3.27L108.47-3.27Q108.47-2.34 108.58-1.48 108.69-0.61 108.83 0L108.83 0Q108.12-0.15 107.05-0.26 105.98-0.37 104.71-0.45 103.44-0.54 102.09-0.57 100.75-0.61 99.51-0.61L99.51-0.61Q98.26-0.61 96.91-0.57 95.55-0.54 94.28-0.45 93.01-0.37 91.93-0.26 90.84-0.15 90.16 0ZM144.18 0L144.18 0Q144.33-0.61 144.44-1.48 144.55-2.34 144.55-3.27L144.55-3.27Q144.55-4.13 144.43-4.94 144.3-5.76 144.18-6.35L144.18-6.35Q145.28-6.35 146.11-6.52 146.94-6.69 147.5-7.09 148.06-7.5 148.34-8.19 148.63-8.89 148.63-9.94L148.63-9.94Q148.63-11.99 148.52-13.45 148.41-14.92 148.2-15.87 147.99-16.82 147.67-17.32 147.36-17.82 146.94-17.94L146.94-17.94Q147.38-18.09 147.7-18.41 148.01-18.73 148.22-19.49 148.43-20.26 148.53-21.62 148.63-22.97 148.63-25.22L148.63-25.22Q148.63-26.27 148.34-26.97 148.06-27.66 147.5-28.06 146.94-28.47 146.11-28.64 145.28-28.81 144.18-28.81L144.18-28.81Q144.3-29.39 144.43-30.21 144.55-31.03 144.55-31.88L144.55-31.88Q144.55-32.81 144.44-33.68 144.33-34.55 144.18-35.16L144.18-35.16Q144.67-35.03 145.87-34.92 147.06-34.81 148.65-34.72 150.24-34.62 152.04-34.55 153.85-34.47 155.57-34.41 157.29-34.35 158.74-34.33 160.2-34.3 161.08-34.3L161.08-34.3Q161.96-34.3 163.32-34.33 164.69-34.35 166.26-34.41 167.84-34.47 169.49-34.55 171.14-34.62 172.59-34.72 174.04-34.81 175.15-34.92 176.26-35.03 176.75-35.16L176.75-35.16Q176.56-34.13 176.35-32.56 176.14-30.98 176.14-29.22L176.14-29.22Q176.14-28.2 176.21-27.21 176.29-26.22 176.37-25.4 176.46-24.58 176.57-23.97 176.68-23.36 176.75-23.07L176.75-23.07Q176.38-23.22 175.83-23.33 175.29-23.44 174.65-23.52 174.02-23.61 173.33-23.65 172.65-23.68 172.01-23.68L172.01-23.68Q170.89-23.68 169.77-23.55 168.64-23.41 167.62-23.07L167.62-23.07Q167.79-23.58 167.9-24.32 168.01-25.05 168.01-25.81L168.01-25.81Q168.01-27.05 167.58-27.8 167.16-28.54 166.5-28.93 165.84-29.32 165.06-29.43 164.27-29.54 163.57-29.54L163.57-29.54Q163.01-29.54 162.38-29.5 161.76-29.47 161.11-29.33 160.47-29.2 159.83-28.97 159.2-28.74 158.66-28.34L158.66-28.34Q158.56-27.78 158.49-27.05 158.42-26.32 158.42-25.22L158.42-25.22Q158.42-23.58 158.48-22.67 158.54-21.75 158.64-21.26L158.64-21.26Q159.29-20.97 160.17-20.85 161.05-20.73 161.98-20.73L161.98-20.73Q163.37-20.73 164.62-20.95 165.86-21.17 166.42-21.46L166.42-21.46Q166.23-20.92 166.14-19.97 166.06-19.02 166.06-17.97L166.06-17.97Q166.06-17.38 166.08-16.81 166.11-16.24 166.17-15.76 166.23-15.28 166.29-14.93 166.35-14.58 166.42-14.4L166.42-14.4Q166.2-14.53 165.72-14.66 165.23-14.79 164.58-14.92 163.93-15.04 163.16-15.12 162.39-15.21 161.59-15.21L161.59-15.21Q160.76-15.21 160-15.11 159.25-15.01 158.64-14.75L158.64-14.75Q158.59-14.45 158.55-14.07 158.51-13.7 158.48-13.12 158.44-12.55 158.43-11.77 158.42-10.99 158.42-9.94L158.42-9.94Q158.42-8.62 158.51-7.8 158.61-6.98 158.73-6.4L158.73-6.4Q159.32-6.08 159.98-5.87 160.64-5.66 161.31-5.55 161.98-5.44 162.61-5.41 163.25-5.37 163.81-5.37L163.81-5.37Q164.52-5.37 165.26-5.55 166.01-5.74 166.62-6.24 167.23-6.74 167.62-7.63 168.01-8.52 168.01-9.91L168.01-9.91Q168.01-10.79 167.9-11.65 167.79-12.5 167.62-13.06L167.62-13.06Q168.64-12.72 169.77-12.59 170.89-12.45 172.01-12.45L172.01-12.45Q172.65-12.45 173.33-12.49 174.02-12.52 174.65-12.61 175.29-12.7 175.83-12.81 176.38-12.92 176.75-13.06L176.75-13.06Q176.68-12.74 176.57-12.08 176.46-11.43 176.37-10.53 176.29-9.64 176.21-8.58 176.14-7.52 176.14-6.42L176.14-6.42Q176.14-5.47 176.2-4.55 176.26-3.64 176.35-2.81 176.43-1.98 176.54-1.26 176.65-0.54 176.75 0L176.75 0Q176.26-0.1 175.15-0.18 174.04-0.27 172.59-0.33 171.14-0.39 169.49-0.45 167.84-0.51 166.26-0.55 164.69-0.59 163.32-0.6 161.96-0.61 161.08-0.61L161.08-0.61Q160.2-0.61 158.74-0.6 157.29-0.59 155.57-0.55 153.85-0.51 152.04-0.45 150.24-0.39 148.65-0.33 147.06-0.27 145.87-0.18 144.67-0.1 144.18 0ZM193.15 0L193.15 0Q193.18-0.15 193.18-0.24 193.18-0.34 193.18-0.54L193.18-0.54Q193.18-1.25 193.04-2.32 192.91-3.39 192.65-4.68 192.4-5.96 192.02-7.39 191.64-8.81 191.16-10.22 190.69-11.62 190.1-12.92 189.52-14.21 188.83-15.26 188.15-16.31 187.37-17.02 186.59-17.72 185.73-17.94L185.73-17.94Q186.07-18.07 186.21-18.42 186.34-18.77 186.34-19.29L186.34-19.29Q186.34-20.24 186.2-21.3 186.05-22.36 185.67-23.43 185.29-24.49 184.66-25.48 184.02-26.46 183.05-27.32L183.05-27.32Q182.75-27.56 182.28-27.83 181.8-28.1 181.25-28.32 180.7-28.54 180.14-28.67 179.58-28.81 179.09-28.81L179.09-28.81Q179.21-29.39 179.27-30.16 179.34-30.93 179.34-31.81L179.34-31.81Q179.34-32.76 179.27-33.65 179.21-34.55 179.09-35.16L179.09-35.16Q179.99-35.01 181.2-34.86 182.41-34.72 183.78-34.58 185.15-34.45 186.62-34.38 188.1-34.3 189.59-34.3L189.59-34.3Q191.13-34.3 192.63-34.35 194.13-34.4 195.5-34.51 196.87-34.62 198.05-34.78 199.23-34.94 200.16-35.16L200.16-35.16Q200.09-34.74 200.03-33.85 199.97-32.96 199.97-31.86L199.97-31.86Q199.97-31.42 199.98-30.93 199.99-30.44 200.01-30.02 200.04-29.59 200.08-29.27 200.11-28.96 200.16-28.81L200.16-28.81Q199.16-28.81 198.24-28.76 197.33-28.71 196.62-28.52 195.91-28.32 195.49-27.94 195.06-27.56 195.06-26.88L195.06-26.88Q195.06-26.05 195.44-24.77 195.82-23.49 196.39-21.92 196.96-20.36 197.68-18.59 198.4-16.82 199.07-15.01 199.75-13.21 200.32-11.46 200.89-9.72 201.19-8.2L201.19-8.2Q201.53-9.55 202.14-11.22 202.75-12.89 203.48-14.69 204.21-16.48 204.96-18.3 205.7-20.12 206.31-21.77 206.92-23.41 207.31-24.77 207.7-26.12 207.7-27L207.7-27Q207.7-27.69 207.35-28.05 207-28.42 206.44-28.59 205.87-28.76 205.15-28.78 204.43-28.81 203.68-28.81L203.68-28.81Q203.7-28.96 203.74-29.28 203.77-29.61 203.8-30.03 203.82-30.44 203.85-30.92 203.87-31.4 203.87-31.86L203.87-31.86Q203.87-32.96 203.81-33.85 203.75-34.74 203.68-35.16L203.68-35.16Q205.75-34.69 207.91-34.5 210.07-34.3 212.29-34.3L212.29-34.3Q214.64-34.3 216.82-34.5 219.01-34.69 221.08-35.16L221.08-35.16Q220.91-34.45 220.88-33.41 220.84-32.37 220.84-31.27L220.84-31.27Q220.84-30.57 220.88-29.93 220.91-29.3 221.08-28.81L221.08-28.81Q220.03-28.81 219.08-28.76 218.13-28.71 217.4-28.52 216.66-28.32 216.24-27.94 215.81-27.56 215.81-26.88L215.81-26.88Q215.81-26.05 216.19-24.77 216.57-23.49 217.17-21.91 217.76-20.34 218.48-18.55 219.2-16.77 219.9-14.97 220.6-13.16 221.17-11.41 221.74-9.67 222.04-8.15L222.04-8.15Q222.38-9.5 223-11.18 223.62-12.87 224.37-14.66 225.11-16.46 225.88-18.29 226.65-20.12 227.27-21.75 227.9-23.39 228.3-24.76 228.7-26.12 228.7-27L228.7-27Q228.7-27.69 228.33-28.05 227.97-28.42 227.39-28.59 226.82-28.76 226.1-28.78 225.38-28.81 224.67-28.81L224.67-28.81Q224.7-28.96 224.73-29.28 224.77-29.61 224.79-30.03 224.82-30.44 224.84-30.92 224.87-31.4 224.87-31.86L224.87-31.86Q224.87-32.96 224.81-33.85 224.75-34.74 224.67-35.16L224.67-35.16Q226.72-34.69 228.81-34.5 230.9-34.3 233.05-34.3L233.05-34.3Q235.34-34.3 237.48-34.5 239.61-34.69 241.59-35.16L241.59-35.16Q241.45-34.55 241.4-33.65 241.35-32.76 241.35-31.81L241.35-31.81Q241.35-30.93 241.41-30.16 241.47-29.39 241.59-28.81L241.59-28.81Q241.25-28.81 240.75-28.72 240.25-28.64 239.72-28.45 239.2-28.27 238.67-27.99 238.15-27.71 237.73-27.29L237.73-27.29Q236.95-26.59 236.33-25.6 235.71-24.61 235.26-23.52 234.8-22.44 234.56-21.34 234.32-20.24 234.32-19.29L234.32-19.29Q234.32-18.87 234.44-18.46 234.56-18.04 234.85-17.94L234.85-17.94Q233.9-17.7 232.99-16.66 232.07-15.63 231.26-14.11 230.46-12.6 229.79-10.75 229.12-8.91 228.63-7.09 228.14-5.27 227.87-3.61 227.6-1.95 227.6-0.78L227.6-0.78 227.6 0Q226.65-0.32 224.82-0.46 222.99-0.61 220.79-0.61L220.79-0.61Q219.86-0.61 218.87-0.59 217.89-0.56 216.97-0.49 216.05-0.42 215.26-0.29 214.47-0.17 213.93 0L213.93 0Q213.95-0.15 213.95-0.24 213.95-0.34 213.95-0.54L213.95-0.54Q213.95-1.44 213.72-2.98 213.49-4.52 213.04-6.31 212.59-8.11 211.93-9.97 211.27-11.84 210.44-13.4L210.44-13.4Q209.63-11.94 208.97-10.21 208.32-8.47 207.84-6.75 207.36-5.03 207.11-3.47 206.85-1.9 206.85-0.78L206.85-0.78 206.85 0Q205.9-0.32 204.07-0.46 202.24-0.61 200.04-0.61L200.04-0.61Q199.11-0.61 198.12-0.57 197.13-0.54 196.21-0.46 195.28-0.39 194.48-0.28 193.69-0.17 193.15 0ZM241.71 0L241.71 0Q241.86-0.61 241.93-1.5 242-2.39 242-3.34L242-3.34Q242-4.22 241.94-4.99 241.88-5.76 241.76-6.35L241.76-6.35Q243.01-6.4 243.88-6.8 244.76-7.2 245.32-7.69L245.32-7.69Q245.91-8.59 246.52-9.72 247.13-10.84 247.63-12.02 248.13-13.21 248.45-14.39 248.77-15.58 248.77-16.6L248.77-16.6Q248.77-17.02 248.64-17.43 248.52-17.85 248.23-17.94L248.23-17.94Q248.96-18.14 249.69-19.02 250.43-19.9 251.11-21.19 251.79-22.49 252.38-24.07 252.97-25.66 253.41-27.28 253.84-28.91 254.09-30.44 254.33-31.98 254.33-33.18L254.33-33.18Q254.33-33.59 254.28-33.98 254.24-34.38 254.24-34.64L254.24-34.64Q254.24-34.77 254.25-34.86 254.26-34.96 254.26-35.16L254.26-35.16Q254.82-34.94 255.66-34.78 256.51-34.62 257.56-34.51 258.61-34.4 259.8-34.35 261-34.3 262.29-34.3L262.29-34.3Q263.42-34.3 264.59-34.35 265.76-34.4 266.86-34.51 267.96-34.62 268.91-34.78 269.86-34.94 270.5-35.16L270.5-35.16 270.5-35.06 270.5-34.84Q270.5-34.57 270.43-34.17 270.37-33.76 270.37-33.28L270.37-33.28Q270.37-32.15 270.58-30.64 270.79-29.13 271.15-27.5 271.52-25.88 272.05-24.28 272.57-22.68 273.21-21.35 273.84-20.02 274.57-19.1 275.3-18.19 276.11-17.94L276.11-17.94Q275.77-17.82 275.63-17.47 275.5-17.11 275.5-16.6L275.5-16.6Q275.5-15.58 275.81-14.39 276.11-13.21 276.61-12.02 277.11-10.84 277.71-9.74 278.31-8.64 278.89-7.76L278.89-7.76Q279.26-7.54 279.77-7.3 280.29-7.06 280.85-6.84 281.41-6.62 281.97-6.48 282.53-6.35 283.02-6.35L283.02-6.35Q282.9-5.76 282.84-4.99 282.78-4.22 282.78-3.34L282.78-3.34Q282.78-2.39 282.85-1.5 282.92-0.61 283.07 0L283.07 0Q282.19-0.1 281.04-0.21 279.89-0.32 278.58-0.4 277.26-0.49 275.84-0.55 274.43-0.61 273.01-0.61L273.01-0.61Q270.42-0.61 268.09-0.45 265.76-0.29 264.15 0L264.15 0Q264.22-0.42 264.28-1.31 264.34-2.2 264.34-3.3L264.34-3.3Q264.34-3.76 264.32-4.24 264.29-4.71 264.27-5.13 264.25-5.54 264.21-5.87 264.17-6.2 264.15-6.35L264.15-6.35Q264.59-6.35 265.08-6.38 265.56-6.42 266.04-6.52 266.52-6.62 266.96-6.79 267.39-6.96 267.74-7.25L267.74-7.25Q267.69-8.23 267.42-8.92 267.15-9.62 266.41-10.08 265.66-10.55 264.33-10.77 263-10.99 260.85-10.99L260.85-10.99Q258.92-10.99 257.64-10.84 256.36-10.69 255.57-10.29 254.77-9.89 254.39-9.17 254.02-8.45 253.92-7.28L253.92-7.28Q254.28-6.98 254.8-6.81 255.31-6.64 255.86-6.53 256.41-6.42 256.96-6.38 257.51-6.35 257.95-6.35L257.95-6.35Q257.9-6.2 257.86-5.88 257.82-5.57 257.8-5.14 257.78-4.71 257.76-4.22 257.75-3.74 257.75-3.3L257.75-3.3Q257.75-2.2 257.81-1.31 257.87-0.42 257.95 0L257.95 0Q256.09-0.34 254.19-0.48 252.28-0.61 250.3-0.61L250.3-0.61Q248.01-0.61 245.85-0.48 243.69-0.34 241.71 0ZM257.34-18.14L257.34-18.14Q257.34-17.43 257.49-16.97 257.65-16.5 258.06-16.24 258.46-15.97 259.15-15.86 259.85-15.75 260.93-15.75L260.93-15.75Q262-15.75 262.7-15.86 263.39-15.97 263.79-16.24 264.2-16.5 264.36-16.97 264.51-17.43 264.51-18.14L264.51-18.14Q264.51-18.99 264.07-20.24 263.63-21.48 263.05-22.85 262.46-24.22 261.85-25.59 261.24-26.95 260.93-28.05L260.93-28.05Q260.56-26.95 259.95-25.59 259.34-24.22 258.76-22.85 258.19-21.48 257.76-20.24 257.34-18.99 257.34-18.14ZM285.63 0L285.63 0Q285.78-0.61 285.89-1.48 286-2.34 286-3.27L286-3.27Q286-4.13 285.87-4.94 285.75-5.76 285.63-6.35L285.63-6.35Q286.73-6.35 287.56-6.52 288.39-6.69 288.95-7.09 289.51-7.5 289.79-8.19 290.07-8.89 290.07-9.94L290.07-9.94Q290.07-11.99 289.96-13.45 289.85-14.92 289.65-15.87 289.44-16.82 289.12-17.32 288.8-17.82 288.39-17.94L288.39-17.94Q288.83-18.09 289.15-18.41 289.46-18.73 289.67-19.49 289.88-20.26 289.98-21.62 290.07-22.97 290.07-25.22L290.07-25.22Q290.07-26.27 289.79-26.97 289.51-27.66 288.95-28.06 288.39-28.47 287.56-28.64 286.73-28.81 285.63-28.81L285.63-28.81Q285.75-29.39 285.87-30.21 286-31.03 286-31.88L286-31.88Q286-32.81 285.89-33.68 285.78-34.55 285.63-35.16L285.63-35.16Q285.95-35.03 286.87-34.91 287.8-34.79 289.06-34.7 290.32-34.62 291.78-34.55 293.25-34.47 294.66-34.41 296.08-34.35 297.31-34.33 298.54-34.3 299.35-34.3L299.35-34.3Q301.67-34.3 304.05-34.34 306.43-34.38 308.49-34.47 310.56-34.57 312.09-34.74 313.63-34.91 314.27-35.16L314.27-35.16Q314.29-34.67 314.62-34.12 314.95-33.57 315.48-33.02 316-32.47 316.66-31.96 317.32-31.45 317.99-31.05 318.66-30.66 319.3-30.42 319.93-30.18 320.42-30.15L320.42-30.15Q320.25-29.81 320.11-29.15 319.98-28.49 319.88-27.69 319.78-26.88 319.74-25.99 319.69-25.1 319.69-24.29L319.69-24.29Q319.69-23.36 319.72-22.47 319.76-21.58 319.83-20.8 319.91-20.02 320.05-19.37 320.2-18.73 320.42-18.31L320.42-18.31Q319.57-18.16 318.64-17.85 317.71-17.53 316.81-17.08 315.9-16.63 315.1-16.06 314.29-15.5 313.71-14.87L313.71-14.87Q314.07-14.36 314.57-13.92 315.07-13.48 315.61-13.17 316.15-12.87 316.71-12.7 317.27-12.52 317.76-12.52L317.76-12.52Q317.76-11.06 318.21-9.91 318.66-8.76 319.49-7.97 320.32-7.18 321.52-6.76 322.71-6.35 324.23-6.35L324.23-6.35Q324.01-5.76 323.94-4.94 323.86-4.13 323.86-3.27L323.86-3.27Q323.86-2.34 323.96-1.48 324.06-0.61 324.28 0L324.28 0Q324.03-0.1 323.32-0.21 322.62-0.32 321.7-0.4 320.79-0.49 319.81-0.55 318.83-0.61 318.05-0.61L318.05-0.61Q317.12-0.61 316-0.59 314.88-0.56 313.8-0.5 312.73-0.44 311.84-0.32 310.95-0.2 310.48 0L310.48 0Q310.53-0.49 310.56-0.96 310.58-1.44 310.58-1.9L310.58-1.9Q310.58-2.91 310.43-3.82 310.29-4.74 309.95-5.51 309.6-6.27 309.07-6.85 308.53-7.42 307.75-7.74L307.75-7.74Q307.97-8.15 308.14-8.86 308.31-9.57 308.31-10.84L308.31-10.84Q308.31-11.52 308.09-12.13 307.87-12.74 307.32-13.18 306.77-13.62 305.87-13.88 304.97-14.14 303.6-14.14L303.6-14.14Q303.01-14.14 302.18-14.09 301.35-14.04 300.42-13.92L300.42-13.92Q300.16-13.26 300.01-12.34 299.86-11.43 299.86-9.94L299.86-9.94Q299.86-8.89 300.09-8.19 300.33-7.5 300.86-7.09 301.4-6.69 302.24-6.52 303.09-6.35 304.31-6.35L304.31-6.35Q304.18-5.76 304.06-4.94 303.94-4.13 303.94-3.27L303.94-3.27Q303.94-2.34 304.05-1.48 304.16-0.61 304.31 0L304.31 0Q303.6-0.15 302.52-0.26 301.45-0.37 300.18-0.45 298.91-0.54 297.57-0.57 296.23-0.61 294.98-0.61L294.98-0.61Q293.74-0.61 292.38-0.57 291.03-0.54 289.76-0.45 288.49-0.37 287.4-0.26 286.31-0.15 285.63 0ZM299.91-19.48L299.91-19.48Q300.94-19.19 302.07-19.06 303.21-18.92 304.55-18.92L304.55-18.92Q305.87-18.92 306.91-19.32 307.94-19.73 308.65-20.43 309.36-21.14 309.73-22.11 310.09-23.07 310.09-24.17L310.09-24.17Q310.09-25.2 309.81-26.17 309.53-27.15 308.91-27.89 308.29-28.64 307.27-29.09 306.26-29.54 304.79-29.54L304.79-29.54Q303.53-29.54 302.22-29.37 300.91-29.2 299.89-28.78L299.89-28.78Q299.77-28 299.72-27.06 299.67-26.12 299.67-25.1L299.67-25.1Q299.67-23.58 299.74-22.11 299.81-20.63 299.91-19.48ZM327.2 0L327.2 0Q327.35-0.61 327.46-1.48 327.57-2.34 327.57-3.27L327.57-3.27Q327.57-4.13 327.45-4.94 327.33-5.76 327.2-6.35L327.2-6.35Q328.3-6.35 329.13-6.52 329.96-6.69 330.52-7.09 331.09-7.5 331.37-8.19 331.65-8.89 331.65-9.94L331.65-9.94Q331.65-11.99 331.54-13.45 331.43-14.92 331.22-15.87 331.01-16.82 330.7-17.32 330.38-17.82 329.96-17.94L329.96-17.94Q330.4-18.09 330.72-18.46 331.04-18.82 331.24-19.63 331.45-20.43 331.55-21.78 331.65-23.12 331.65-25.22L331.65-25.22Q331.65-26.27 331.37-26.97 331.09-27.66 330.52-28.06 329.96-28.47 329.13-28.64 328.3-28.81 327.2-28.81L327.2-28.81Q327.33-29.39 327.45-30.21 327.57-31.03 327.57-31.88L327.57-31.88Q327.57-32.81 327.46-33.68 327.35-34.55 327.2-35.16L327.2-35.16Q327.52-35.03 328.45-34.91 329.38-34.79 330.63-34.7 331.89-34.62 333.36-34.55 334.82-34.47 336.24-34.41 337.65-34.35 338.89-34.33 340.12-34.3 340.92-34.3L340.92-34.3Q343.05-34.3 345.23-34.34 347.42-34.38 349.3-34.47 351.18-34.57 352.59-34.74 354.01-34.91 354.6-35.16L354.6-35.16Q354.62-34.64 355.05-34.07 355.48-33.5 356.13-32.92 356.79-32.35 357.65-31.81 358.5-31.27 359.36-30.85 360.21-30.42 361.03-30.16 361.85-29.91 362.46-29.88L362.46-29.88Q362.34-29.15 362.27-28.39 362.21-27.64 362.21-26.88L362.21-26.88Q362.21-25.24 362.47-23.72 362.73-22.19 363.15-20.96 363.58-19.73 364.14-18.92 364.7-18.12 365.34-17.94L365.34-17.94Q364.68-17.8 364.11-17.02 363.53-16.24 363.11-15 362.68-13.77 362.45-12.16 362.21-10.55 362.21-8.76L362.21-8.76Q362.21-7.91 362.27-7.03 362.34-6.15 362.46-5.27L362.46-5.27Q361.82-5.25 361.03-5 360.24-4.76 359.39-4.36 358.55-3.96 357.73-3.44 356.92-2.93 356.26-2.34 355.6-1.76 355.15-1.16 354.69-0.56 354.6 0L354.6 0Q354.01-0.17 352.59-0.29 351.18-0.42 349.3-0.49 347.42-0.56 345.23-0.59 343.05-0.61 340.92-0.61L340.92-0.61Q340.12-0.61 338.89-0.6 337.65-0.59 336.24-0.55 334.82-0.51 333.36-0.45 331.89-0.39 330.62-0.33 329.35-0.27 328.44-0.18 327.52-0.1 327.2 0ZM341.54-5.91L341.54-5.91Q342.56-5.64 343.74-5.51 344.93-5.37 346.1-5.37L346.1-5.37Q347.71-5.37 349.07-6.1 350.42-6.84 351.42-8.42 352.42-10.01 352.99-12.51 353.55-15.01 353.55-18.53L353.55-18.53Q353.55-23.93 351.75-26.73 349.96-29.54 346.34-29.54L346.34-29.54Q345.81-29.54 345.17-29.5 344.54-29.47 343.9-29.38 343.27-29.3 342.65-29.16 342.02-29.03 341.51-28.83L341.51-28.83Q341.36-27.66 341.3-25.5 341.24-23.34 341.24-20.7L341.24-20.7Q341.24-18.65 341.27-16.49 341.29-14.33 341.34-12.34 341.39-10.35 341.44-8.68 341.49-7.01 341.54-5.91ZM388.43 0L388.43 0Q388.58-0.61 388.69-1.48 388.8-2.34 388.8-3.27L388.8-3.27Q388.8-4.13 388.67-4.94 388.55-5.76 388.43-6.35L388.43-6.35Q389.65-6.35 390.49-6.52 391.33-6.69 391.87-7.09 392.41-7.5 392.64-8.19 392.87-8.89 392.87-9.94L392.87-9.94Q392.87-11.99 392.76-13.45 392.65-14.92 392.45-15.87 392.24-16.82 391.92-17.32 391.6-17.82 391.19-17.94L391.19-17.94Q391.63-18.09 391.95-18.47 392.26-18.85 392.47-19.7 392.68-20.56 392.78-21.98 392.87-23.41 392.87-25.66L392.87-25.66Q392.87-26.64 392.59-27.25 392.31-27.86 391.8-28.21 391.29-28.56 390.55-28.69 389.82-28.81 388.92-28.81L388.92-28.81 388.43-28.81Q388.55-29.39 388.67-30.16 388.8-30.93 388.8-31.79L388.8-31.79Q388.8-32.69 388.69-33.62 388.58-34.55 388.43-35.16L388.43-35.16Q388.89-34.99 389.88-34.84 390.87-34.69 392.15-34.57 393.43-34.45 394.9-34.38 396.36-34.3 397.76-34.3L397.76-34.3Q399.15-34.3 400.6-34.38 402.05-34.45 403.33-34.57 404.62-34.69 405.62-34.84 406.62-34.99 407.11-35.16L407.11-35.16Q406.96-34.55 406.85-33.62 406.74-32.69 406.74-31.79L406.74-31.79Q406.74-30.93 406.86-30.16 406.98-29.39 407.11-28.81L407.11-28.81 406.64-28.81Q405.81-28.81 405.09-28.69 404.37-28.56 403.83-28.21 403.3-27.86 402.98-27.25 402.66-26.64 402.66-25.66L402.66-25.66Q402.66-23.97 402.71-22.8 402.76-21.63 402.88-20.78L402.88-20.78Q404.27-20.51 406.06-20.39 407.84-20.26 409.74-20.26L409.74-20.26Q411.65-20.26 413.42-20.4 415.19-20.53 416.58-20.8L416.58-20.8Q416.7-21.66 416.75-22.84 416.8-24.02 416.8-25.66L416.8-25.66Q416.8-26.64 416.52-27.25 416.24-27.86 415.72-28.21 415.21-28.56 414.48-28.69 413.75-28.81 412.84-28.81L412.84-28.81 412.36-28.81Q412.48-29.39 412.6-30.16 412.72-30.93 412.72-31.79L412.72-31.79Q412.72-32.69 412.61-33.62 412.5-34.55 412.36-35.16L412.36-35.16Q412.82-34.99 413.81-34.84 414.8-34.69 416.08-34.57 417.36-34.45 418.83-34.38 420.29-34.3 421.68-34.3L421.68-34.3Q423.07-34.3 424.53-34.38 425.98-34.45 427.26-34.57 428.54-34.69 429.54-34.84 430.54-34.99 431.03-35.16L431.03-35.16Q430.89-34.55 430.78-33.62 430.67-32.69 430.67-31.79L430.67-31.79Q430.67-30.93 430.79-30.16 430.91-29.39 431.03-28.81L431.03-28.81 430.57-28.81Q429.74-28.81 429.02-28.69 428.3-28.56 427.76-28.21 427.22-27.86 426.91-27.25 426.59-26.64 426.59-25.66L426.59-25.66Q426.59-23.41 426.69-21.98 426.78-20.56 426.99-19.7 427.2-18.85 427.52-18.47 427.83-18.09 428.27-17.94L428.27-17.94Q427.86-17.82 427.54-17.32 427.22-16.82 427.02-15.87 426.81-14.92 426.7-13.45 426.59-11.99 426.59-9.94L426.59-9.94Q426.59-8.89 426.87-8.19 427.15-7.5 427.71-7.09 428.27-6.69 429.1-6.52 429.93-6.35 431.03-6.35L431.03-6.35Q430.91-5.76 430.79-4.94 430.67-4.13 430.67-3.27L430.67-3.27Q430.67-2.34 430.78-1.48 430.89-0.61 431.03 0L431.03 0Q430.32-0.15 429.25-0.26 428.18-0.37 426.91-0.45 425.64-0.54 424.28-0.57 422.93-0.61 421.68-0.61L421.68-0.61Q420.44-0.61 419.08-0.57 417.73-0.54 416.46-0.45 415.19-0.37 414.11-0.26 413.04-0.15 412.36 0L412.36 0Q412.5-0.61 412.61-1.48 412.72-2.34 412.72-3.27L412.72-3.27Q412.72-4.13 412.6-4.94 412.48-5.76 412.36-6.35L412.36-6.35Q413.58-6.35 414.42-6.52 415.26-6.69 415.8-7.09 416.33-7.5 416.57-8.19 416.8-8.89 416.8-9.94L416.8-9.94Q416.8-12.84 416.58-14.65L416.58-14.65Q415.19-14.94 413.43-15.1 411.67-15.26 409.74-15.26L409.74-15.26Q407.91-15.26 406.11-15.11 404.3-14.97 402.88-14.7L402.88-14.7Q402.66-12.89 402.66-9.94L402.66-9.94Q402.66-8.89 402.94-8.19 403.22-7.5 403.79-7.09 404.35-6.69 405.18-6.52 406.01-6.35 407.11-6.35L407.11-6.35Q406.98-5.76 406.86-4.94 406.74-4.13 406.74-3.27L406.74-3.27Q406.74-2.34 406.85-1.48 406.96-0.61 407.11 0L407.11 0Q406.4-0.15 405.32-0.26 404.25-0.37 402.98-0.45 401.71-0.54 400.36-0.57 399-0.61 397.76-0.61L397.76-0.61Q396.51-0.61 395.16-0.57 393.8-0.54 392.53-0.45 391.26-0.37 390.19-0.26 389.11-0.15 388.43 0ZM432.86 0L432.86 0Q433.01-0.61 433.08-1.5 433.15-2.39 433.15-3.34L433.15-3.34Q433.15-4.22 433.09-4.99 433.03-5.76 432.91-6.35L432.91-6.35Q434.15-6.4 435.03-6.8 435.91-7.2 436.47-7.69L436.47-7.69Q437.06-8.59 437.67-9.72 438.28-10.84 438.78-12.02 439.28-13.21 439.6-14.39 439.92-15.58 439.92-16.6L439.92-16.6Q439.92-17.02 439.79-17.43 439.67-17.85 439.38-17.94L439.38-17.94Q440.11-18.14 440.84-19.02 441.58-19.9 442.26-21.19 442.94-22.49 443.53-24.07 444.12-25.66 444.56-27.28 444.99-28.91 445.24-30.44 445.48-31.98 445.48-33.18L445.48-33.18Q445.48-33.59 445.43-33.98 445.39-34.38 445.39-34.64L445.39-34.64Q445.39-34.77 445.4-34.86 445.41-34.96 445.41-35.16L445.41-35.16Q445.97-34.94 446.81-34.78 447.66-34.62 448.71-34.51 449.76-34.4 450.95-34.35 452.15-34.3 453.44-34.3L453.44-34.3Q454.56-34.3 455.74-34.35 456.91-34.4 458.01-34.51 459.11-34.62 460.06-34.78 461.01-34.94 461.64-35.16L461.64-35.16 461.64-35.06 461.64-34.84Q461.64-34.57 461.58-34.17 461.52-33.76 461.52-33.28L461.52-33.28Q461.52-32.15 461.73-30.64 461.94-29.13 462.3-27.5 462.67-25.88 463.2-24.28 463.72-22.68 464.35-21.35 464.99-20.02 465.72-19.1 466.45-18.19 467.26-17.94L467.26-17.94Q466.92-17.82 466.78-17.47 466.65-17.11 466.65-16.6L466.65-16.6Q466.65-15.58 466.95-14.39 467.26-13.21 467.76-12.02 468.26-10.84 468.86-9.74 469.46-8.64 470.04-7.76L470.04-7.76Q470.41-7.54 470.92-7.3 471.43-7.06 472-6.84 472.56-6.62 473.12-6.48 473.68-6.35 474.17-6.35L474.17-6.35Q474.05-5.76 473.99-4.99 473.93-4.22 473.93-3.34L473.93-3.34Q473.93-2.39 474-1.5 474.07-0.61 474.22 0L474.22 0Q473.34-0.1 472.19-0.21 471.04-0.32 469.73-0.4 468.41-0.49 466.99-0.55 465.58-0.61 464.16-0.61L464.16-0.61Q461.57-0.61 459.24-0.45 456.91-0.29 455.3 0L455.3 0Q455.37-0.42 455.43-1.31 455.49-2.2 455.49-3.3L455.49-3.3Q455.49-3.76 455.47-4.24 455.44-4.71 455.42-5.13 455.39-5.54 455.36-5.87 455.32-6.2 455.3-6.35L455.3-6.35Q455.74-6.35 456.23-6.38 456.71-6.42 457.19-6.52 457.67-6.62 458.1-6.79 458.54-6.96 458.89-7.25L458.89-7.25Q458.84-8.23 458.57-8.92 458.3-9.62 457.56-10.08 456.81-10.55 455.48-10.77 454.15-10.99 452-10.99L452-10.99Q450.07-10.99 448.79-10.84 447.51-10.69 446.72-10.29 445.92-9.89 445.54-9.17 445.17-8.45 445.07-7.28L445.07-7.28Q445.43-6.98 445.95-6.81 446.46-6.64 447.01-6.53 447.56-6.42 448.11-6.38 448.66-6.35 449.1-6.35L449.1-6.35Q449.05-6.2 449.01-5.88 448.97-5.57 448.95-5.14 448.93-4.71 448.91-4.22 448.9-3.74 448.9-3.3L448.9-3.3Q448.9-2.2 448.96-1.31 449.02-0.42 449.1 0L449.1 0Q447.24-0.34 445.34-0.48 443.43-0.61 441.45-0.61L441.45-0.61Q439.16-0.61 437-0.48 434.84-0.34 432.86 0ZM448.49-18.14L448.49-18.14Q448.49-17.43 448.64-16.97 448.8-16.5 449.21-16.24 449.61-15.97 450.3-15.86 451-15.75 452.07-15.75L452.07-15.75Q453.15-15.75 453.84-15.86 454.54-15.97 454.94-16.24 455.35-16.5 455.5-16.97 455.66-17.43 455.66-18.14L455.66-18.14Q455.66-18.99 455.22-20.24 454.78-21.48 454.2-22.85 453.61-24.22 453-25.59 452.39-26.95 452.07-28.05L452.07-28.05Q451.71-26.95 451.1-25.59 450.49-24.22 449.91-22.85 449.34-21.48 448.91-20.24 448.49-18.99 448.49-18.14ZM488.33 0L488.33 0Q488.35-0.15 488.35-0.24 488.35-0.34 488.35-0.54L488.35-0.54Q488.35-1.25 488.23-2.32 488.11-3.39 487.85-4.68 487.59-5.96 487.23-7.39 486.86-8.81 486.4-10.22 485.93-11.62 485.35-12.92 484.76-14.21 484.09-15.26 483.42-16.31 482.64-17.02 481.86-17.72 481-17.94L481-17.94Q481.34-18.07 481.48-18.42 481.61-18.77 481.61-19.29L481.61-19.29Q481.61-20.24 481.45-21.3 481.3-22.36 480.91-23.43 480.51-24.49 479.86-25.48 479.2-26.46 478.22-27.32L478.22-27.32Q477.93-27.56 477.45-27.83 476.97-28.1 476.43-28.32 475.88-28.54 475.31-28.67 474.75-28.81 474.26-28.81L474.26-28.81Q474.39-29.39 474.45-30.16 474.51-30.93 474.51-31.81L474.51-31.81Q474.51-32.76 474.45-33.65 474.39-34.55 474.26-35.16L474.26-35.16Q475.17-35.01 476.38-34.86 477.58-34.72 478.95-34.58 480.32-34.45 481.8-34.38 483.27-34.3 484.76-34.3L484.76-34.3Q486.3-34.3 487.8-34.35 489.3-34.4 490.67-34.51 492.04-34.62 493.22-34.78 494.41-34.94 495.33-35.16L495.33-35.16Q495.26-34.74 495.2-33.85 495.14-32.96 495.14-31.86L495.14-31.86Q495.14-31.42 495.15-30.93 495.16-30.44 495.19-30.02 495.21-29.59 495.25-29.27 495.29-28.96 495.33-28.81L495.33-28.81Q494.33-28.81 493.42-28.76 492.5-28.71 491.79-28.52 491.09-28.32 490.66-27.94 490.23-27.56 490.23-26.88L490.23-26.88Q490.23-26.05 490.62-24.77 491.01-23.49 491.61-21.91 492.21-20.34 492.95-18.57 493.7-16.8 494.39-14.99 495.09-13.18 495.68-11.44 496.26-9.69 496.55-8.18L496.55-8.18Q496.9-9.52 497.52-11.19 498.14-12.87 498.87-14.66 499.61-16.46 500.35-18.29 501.1-20.12 501.72-21.75 502.34-23.39 502.73-24.76 503.12-26.12 503.12-27L503.12-27Q503.12-27.69 502.76-28.05 502.39-28.42 501.82-28.59 501.24-28.76 500.52-28.78 499.8-28.81 499.09-28.81L499.09-28.81Q499.12-28.96 499.15-29.28 499.19-29.61 499.22-30.03 499.24-30.44 499.26-30.92 499.29-31.4 499.29-31.86L499.29-31.86Q499.29-32.96 499.23-33.85 499.17-34.74 499.09-35.16L499.09-35.16Q501.14-34.69 503.23-34.5 505.32-34.3 507.47-34.3L507.47-34.3Q509.76-34.3 511.9-34.5 514.04-34.69 516.01-35.16L516.01-35.16Q515.87-34.55 515.82-33.65 515.77-32.76 515.77-31.81L515.77-31.81Q515.77-30.93 515.83-30.16 515.89-29.39 516.01-28.81L516.01-28.81Q515.67-28.81 515.17-28.72 514.67-28.64 514.14-28.45 513.62-28.27 513.1-27.99 512.57-27.71 512.16-27.29L512.16-27.29Q511.4-26.59 510.79-25.6 510.18-24.61 509.74-23.52 509.3-22.44 509.07-21.34 508.83-20.24 508.83-19.29L508.83-19.29Q508.83-18.87 508.96-18.46 509.08-18.04 509.37-17.94L509.37-17.94Q508.42-17.7 507.5-16.66 506.59-15.63 505.78-14.11 504.98-12.6 504.31-10.75 503.63-8.91 503.15-7.09 502.66-5.27 502.39-3.61 502.12-1.95 502.12-0.78L502.12-0.78 502.12 0Q501.17-0.32 499.34-0.46 497.51-0.61 495.31-0.61L495.31-0.61Q494.38-0.61 493.38-0.57 492.38-0.54 491.43-0.46 490.48-0.39 489.67-0.28 488.86-0.17 488.33 0ZM518.35 0L518.35 0Q518.5-0.61 518.61-1.48 518.72-2.34 518.72-3.27L518.72-3.27Q518.72-4.13 518.6-4.94 518.48-5.76 518.35-6.35L518.35-6.35Q519.45-6.35 520.28-6.52 521.11-6.69 521.67-7.09 522.24-7.5 522.52-8.19 522.8-8.89 522.8-9.94L522.8-9.94Q522.8-11.99 522.69-13.45 522.58-14.92 522.37-15.87 522.16-16.82 521.85-17.32 521.53-17.82 521.11-17.94L521.11-17.94Q521.55-18.09 521.87-18.41 522.19-18.73 522.39-19.49 522.6-20.26 522.7-21.62 522.8-22.97 522.8-25.22L522.8-25.22Q522.8-26.27 522.52-26.97 522.24-27.66 521.67-28.06 521.11-28.47 520.28-28.64 519.45-28.81 518.35-28.81L518.35-28.81Q518.48-29.39 518.6-30.21 518.72-31.03 518.72-31.88L518.72-31.88Q518.72-32.81 518.61-33.68 518.5-34.55 518.35-35.16L518.35-35.16Q518.84-35.03 520.04-34.92 521.23-34.81 522.82-34.72 524.41-34.62 526.22-34.55 528.02-34.47 529.74-34.41 531.46-34.35 532.92-34.33 534.37-34.3 535.25-34.3L535.25-34.3Q536.13-34.3 537.49-34.33 538.86-34.35 540.44-34.41 542.01-34.47 543.66-34.55 545.31-34.62 546.76-34.72 548.21-34.81 549.32-34.92 550.43-35.03 550.92-35.16L550.92-35.16Q550.73-34.13 550.52-32.56 550.31-30.98 550.31-29.22L550.31-29.22Q550.31-28.2 550.39-27.21 550.46-26.22 550.54-25.4 550.63-24.58 550.74-23.97 550.85-23.36 550.92-23.07L550.92-23.07Q550.56-23.22 550.01-23.33 549.46-23.44 548.82-23.52 548.19-23.61 547.5-23.65 546.82-23.68 546.19-23.68L546.19-23.68Q545.06-23.68 543.94-23.55 542.82-23.41 541.79-23.07L541.79-23.07Q541.96-23.58 542.07-24.32 542.18-25.05 542.18-25.81L542.18-25.81Q542.18-27.05 541.75-27.8 541.33-28.54 540.67-28.93 540.01-29.32 539.23-29.43 538.45-29.54 537.74-29.54L537.74-29.54Q537.18-29.54 536.55-29.5 535.93-29.47 535.28-29.33 534.64-29.2 534-28.97 533.37-28.74 532.83-28.34L532.83-28.34Q532.73-27.78 532.66-27.05 532.59-26.32 532.59-25.22L532.59-25.22Q532.59-23.58 532.65-22.67 532.71-21.75 532.81-21.26L532.81-21.26Q533.47-20.97 534.35-20.85 535.22-20.73 536.15-20.73L536.15-20.73Q537.54-20.73 538.79-20.95 540.03-21.17 540.6-21.46L540.6-21.46Q540.4-20.92 540.31-19.97 540.23-19.02 540.23-17.97L540.23-17.97Q540.23-17.38 540.25-16.81 540.28-16.24 540.34-15.76 540.4-15.28 540.46-14.93 540.52-14.58 540.6-14.4L540.6-14.4Q540.38-14.53 539.89-14.66 539.4-14.79 538.75-14.92 538.1-15.04 537.34-15.12 536.57-15.21 535.76-15.21L535.76-15.21Q534.93-15.21 534.17-15.11 533.42-15.01 532.81-14.75L532.81-14.75Q532.76-14.45 532.72-14.07 532.68-13.7 532.65-13.12 532.61-12.55 532.6-11.77 532.59-10.99 532.59-9.94L532.59-9.94Q532.59-8.62 532.68-7.8 532.78-6.98 532.9-6.4L532.9-6.4Q533.49-6.08 534.15-5.87 534.81-5.66 535.48-5.55 536.15-5.44 536.79-5.41 537.42-5.37 537.98-5.37L537.98-5.37Q538.69-5.37 539.44-5.55 540.18-5.74 540.79-6.24 541.4-6.74 541.79-7.63 542.18-8.52 542.18-9.91L542.18-9.91Q542.18-10.79 542.07-11.65 541.96-12.5 541.79-13.06L541.79-13.06Q542.82-12.72 543.94-12.59 545.06-12.45 546.19-12.45L546.19-12.45Q546.82-12.45 547.5-12.49 548.19-12.52 548.82-12.61 549.46-12.7 550.01-12.81 550.56-12.92 550.92-13.06L550.92-13.06Q550.85-12.74 550.74-12.08 550.63-11.43 550.54-10.53 550.46-9.64 550.39-8.58 550.31-7.52 550.31-6.42L550.31-6.42Q550.31-5.47 550.37-4.55 550.43-3.64 550.52-2.81 550.6-1.98 550.71-1.26 550.82-0.54 550.92 0L550.92 0Q550.43-0.1 549.32-0.18 548.21-0.27 546.76-0.33 545.31-0.39 543.66-0.45 542.01-0.51 540.44-0.55 538.86-0.59 537.49-0.6 536.13-0.61 535.25-0.61L535.25-0.61Q534.37-0.61 532.92-0.6 531.46-0.59 529.74-0.55 528.02-0.51 526.22-0.45 524.41-0.39 522.82-0.33 521.23-0.27 520.04-0.18 518.84-0.1 518.35 0ZM555.78 0L555.78 0Q555.92-0.61 556.03-1.48 556.14-2.34 556.14-3.27L556.14-3.27Q556.14-4.13 556.02-4.94 555.9-5.76 555.78-6.35L555.78-6.35Q556.88-6.35 557.71-6.52 558.54-6.69 559.1-7.09 559.66-7.5 559.94-8.19 560.22-8.89 560.22-9.94L560.22-9.94Q560.22-12.16 560.11-13.65 560-15.14 559.79-16.05 559.59-16.97 559.27-17.4 558.95-17.82 558.54-17.94L558.54-17.94Q558.98-18.09 559.29-18.47 559.61-18.85 559.82-19.7 560.03-20.56 560.12-21.98 560.22-23.41 560.22-25.66L560.22-25.66Q560.22-26.64 559.9-27.25 559.59-27.86 559.05-28.21 558.51-28.56 557.79-28.69 557.07-28.81 556.24-28.81L556.24-28.81 555.78-28.81Q555.9-29.39 556.02-30.16 556.14-30.93 556.14-31.79L556.14-31.79Q556.14-32.69 556.03-33.62 555.92-34.55 555.78-35.16L555.78-35.16Q556.73-34.81 558.49-34.56 560.25-34.3 563.05-34.3L563.05-34.3Q564.88-34.3 566.62-34.51 568.35-34.72 569.82-34.99L569.82-34.99Q569.82-33.81 570.3-32.32 570.79-30.83 571.62-29.2 572.45-27.56 573.51-25.87 574.58-24.17 575.74-22.58 576.9-21 578.06-19.59 579.22-18.19 580.23-17.15 581.24-16.11 582-15.5 582.76-14.89 583.12-14.89L583.12-14.89 583.17-14.89Q583.2-14.89 583.23-14.88 583.27-14.87 583.32-14.87L583.32-14.87Q583.51-15.6 583.62-16.72 583.73-17.85 583.79-19.26 583.85-20.68 583.88-22.3 583.9-23.93 583.9-25.66L583.9-25.66Q583.9-26.64 583.59-27.25 583.27-27.86 582.73-28.21 582.19-28.56 581.47-28.69 580.75-28.81 579.92-28.81L579.92-28.81 579.46-28.81Q579.58-29.39 579.7-30.16 579.83-30.93 579.83-31.79L579.83-31.79Q579.83-32.69 579.72-33.62 579.61-34.55 579.46-35.16L579.46-35.16Q579.92-34.99 580.92-34.84 581.93-34.69 583.22-34.57 584.51-34.45 585.97-34.38 587.42-34.3 588.81-34.3L588.81-34.3Q590.23-34.3 591.68-34.38 593.13-34.45 594.41-34.57 595.7-34.69 596.67-34.84 597.65-34.99 598.14-35.16L598.14-35.16Q597.99-34.55 597.88-33.62 597.77-32.69 597.77-31.79L597.77-31.79Q597.77-30.93 597.89-30.16 598.01-29.39 598.14-28.81L598.14-28.81 597.62-28.81Q596.74-28.81 596.01-28.69 595.28-28.56 594.77-28.21 594.25-27.86 593.97-27.25 593.69-26.64 593.69-25.66L593.69-25.66Q593.69-23.41 593.83-21.95 593.96-20.48 594.22-19.6 594.47-18.73 594.83-18.36 595.18-17.99 595.62-17.94L595.62-17.94Q595.21-17.72 594.89-17.26 594.57-16.8 594.36-15.8 594.16-14.79 594.05-13.13 593.94-11.47 593.94-8.86L593.94-8.86Q593.94-7.1 594.08-5.65 594.23-4.2 594.44-3.09 594.65-1.98 594.89-1.21 595.13-0.44 595.33 0L595.33 0Q594.72-0.2 593.96-0.32 593.2-0.44 592.42-0.5 591.64-0.56 590.91-0.59 590.18-0.61 589.64-0.61L589.64-0.61Q589.05-0.61 588.32-0.59 587.59-0.56 586.82-0.5 586.05-0.44 585.27-0.32 584.49-0.2 583.83 0L583.83 0Q583.83-1.22 583.13-2.91 582.44-4.59 581.3-6.45 580.17-8.3 578.74-10.21 577.31-12.11 575.86-13.81 574.41-15.5 573.06-16.86 571.72-18.21 570.77-18.97L570.77-18.97Q570.3-17.87 570.16-15.53 570.01-13.18 570.01-9.94L570.01-9.94Q570.01-8.89 570.24-8.19 570.48-7.5 571.01-7.09 571.55-6.69 572.39-6.52 573.23-6.35 574.45-6.35L574.45-6.35Q574.33-5.76 574.21-4.94 574.09-4.13 574.09-3.27L574.09-3.27Q574.09-2.34 574.2-1.48 574.31-0.61 574.45 0L574.45 0Q573.75-0.15 572.67-0.26 571.6-0.37 570.33-0.45 569.06-0.54 567.72-0.57 566.37-0.61 565.13-0.61L565.13-0.61Q563.88-0.61 562.53-0.57 561.17-0.54 559.9-0.45 558.63-0.37 557.55-0.26 556.46-0.15 555.78 0Z" opacity="1" transform="matrix(1,0,0,1,0,0)" fill="#2e4166" class="wordmark-text-0" data-fill-palette-color="primary" id="text-0"></path></svg></g></svg></g><g transform="matrix(1,0,0,1,0,31.207799662358486)"><svg viewBox="0 0 225.64907101188982 14.805533797167879" height="14.805533797167879" width="225.64907101188982"><g transform="matrix(1,0,0,1,0,0)"><svg width="225.64907101188982" viewBox="0.68 -43.99 692.0300000000001 45.410000000000004" height="14.805533797167879" data-palette-color="#506183"><path d="M37.26-8.11L37.26-8.11Q39.7-16.02 42.92-37.01L42.92-37.01Q46-37.01 46.14-35.11L46.14-35.11Q46.19-34.52 46.22-34.28 46.24-34.03 46.04-32.59 45.85-31.15 45.48-28.56 45.12-25.98 44.58-22.56 44.04-19.14 43.36-15.43L43.36-15.43Q41.7-6.69 39.94-0.68L39.94-0.68Q38.18 0.54 37.21-0.29L37.21-0.29Q36.77-0.73 36.43-1.49 36.08-2.25 35.64-3.22L35.64-3.22Q35.01-4.05 33.3-7.62 31.59-11.18 30.54-13.28 29.49-15.38 28.52-17.19L28.52-17.19Q26.27-21.24 24.76-21.92L24.76-21.92Q23-19.19 18.51-6.93L18.51-6.93Q17.72-4.79 17.09-2.95 16.46-1.12 16.02 0L16.02 0 12.99-0.15 0.78-28.37Q0.68-28.61 0.68-28.86 0.68-29.1 0.85-29.35 1.03-29.59 1.46-29.79L1.46-29.79Q2.29-30.08 3.13-30.08 3.96-30.08 4.32-29.76 4.69-29.44 4.91-28.96 5.13-28.47 5.27-27.88 5.42-27.29 5.83-26.37 6.25-25.44 7.06-23.63 7.86-21.83 8.79-19.82 9.72-17.82 10.64-15.84 11.57-13.87 12.4-12.21L12.4-12.21Q14.16-8.54 14.6-8.11L14.6-8.11Q20.26-22.07 21.58-24.68 22.9-27.29 23.24-27.88L23.24-27.88Q23.78-28.71 24.07-28.71L24.07-28.71Q26.17-28.71 31.15-19.34L31.15-19.34Q32.52-16.85 33.69-14.55L33.69-14.55Q36.57-8.98 37.26-8.11ZM71.29-0.68L71.29-0.68Q70.85 0.15 69.02 0.15 67.19 0.15 67.19-1.17L67.19-1.17Q67.19-6.93 66.94-9.08L66.94-9.08Q66.5-13.82 65.09-14.16L65.09-14.16Q61.57-14.84 59.35-14.84 57.13-14.84 55.69-13.5 54.25-12.16 53.49-9.06 52.73-5.96 52.39-0.34L52.39-0.34 48.63-0.34Q48.73-3.13 48.73-5.52 48.73-7.91 48.63-11.21 48.53-14.5 48.39-18.41L48.39-18.41Q48.14-22.9 48.14-26 48.14-29.1 48.53-31.69L48.53-31.69Q49.02-32.62 49.95-32.62L49.95-32.62Q51.07-32.62 51.71-31.81 52.34-31.01 52.39-30.37L52.39-30.37 52.15-22.31Q52.15-17.77 52.59-15.53L52.59-15.53Q56.98-18.46 61.67-18.46L61.67-18.46Q63.18-18.46 64.89-18.21L64.89-18.21Q68.55-16.31 69.68-14.16L69.68-14.16Q70.21-13.04 70.36-11.77 70.51-10.5 70.55-8.89L70.55-8.89Q70.85-3.32 71.29-0.68ZM83.05-3.42L83.05-3.42Q87.35-3.42 95.99-7.32L95.99-7.32Q96.53-7.32 96.87-6.96 97.21-6.59 97.21-6.1L97.21-6.1Q95.26-2.78 89.74-0.93 84.22 0.93 79.44-0.29L79.44-0.29Q74.02-1.71 72.85-6.4L72.85-6.4Q72.75-7.32 72.75-8.89 72.75-10.45 73.55-13.01 74.36-15.58 76.31-17.87 78.27-20.17 80.9-21.48 83.54-22.8 86.52-22.8L86.52-22.8Q89.35-22.8 92.87-20.85L92.87-20.85Q94.53-19.92 95.5-18.75 96.48-17.58 96.48-16.36L96.48-16.36Q96.48-16.02 96.43-15.67L96.43-15.67Q96.33-12.7 93.55-11.91L93.55-11.91Q92.33-11.57 90.72-11.57L90.72-11.57 83.69-11.87Q80.17-11.87 78.32-10.35L78.32-10.35Q77.24-9.52 76.8-7.86L76.8-7.86Q78.02-3.42 83.05-3.42ZM91.77-18.51Q90.67-19.29 89.5-19.63 88.33-19.97 87.54-19.97 86.76-19.97 85-19.46 83.25-18.95 81.88-18.31L81.88-18.31Q78.51-16.75 78.51-15.04L78.51-15.04Q82.42-14.7 84.37-14.7L84.37-14.7Q89.79-14.7 91.69-15.63L91.69-15.63Q92.87-16.11 92.87-16.85L92.87-16.85Q92.87-17.72 91.77-18.51ZM124.11-17.82L124.11-17.82Q122.06-19.29 118.84-19.29L118.84-19.29Q115.81-19.29 113.22-18.16L113.22-18.16Q108.34-16.11 106.54-12.89L106.54-12.89Q105.75-11.43 105.75-9.77L105.75-9.77Q105.75-9.47 105.75-8.13 105.75-6.79 106.24-4.52 106.73-2.25 106.73 0.1L106.73 0.1Q105.71 0.15 105.07 0.34 104.44 0.54 104 0.54 103.56 0.54 103.24 0.15 102.92-0.24 102.53-1.37L102.53-1.37Q102.48-1.66 102.34-3.03 102.19-4.39 101.97-6.35 101.75-8.3 101.48-10.62 101.21-12.94 100.97-15.19L100.97-15.19Q100.43-20.07 100.14-22.36L100.14-22.36Q100.14-23.54 101.85-23.54L101.85-23.54Q102.87-23.54 103.46-22.68 104.05-21.83 104.39-20.73 104.73-19.63 104.85-18.55 104.97-17.48 105.07-17.04L105.07-17.04Q111.52-22.8 121.09-22.8L121.09-22.8Q122.16-22.8 123.33-22.75L123.33-22.75Q123.63-22.8 124.06-22.8 124.5-22.8 124.94-22.22L124.94-22.22Q125.48-21.53 125.48-20.56L125.48-20.56Q125.48-18.12 124.11-17.82ZM137.69-3.42L137.69-3.42Q141.98-3.42 150.62-7.32L150.62-7.32Q151.16-7.32 151.5-6.96 151.85-6.59 151.85-6.1L151.85-6.1Q149.89-2.78 144.37-0.93 138.86 0.93 134.07-0.29L134.07-0.29Q128.65-1.71 127.48-6.4L127.48-6.4Q127.38-7.32 127.38-8.89 127.38-10.45 128.19-13.01 128.99-15.58 130.95-17.87 132.9-20.17 135.54-21.48 138.17-22.8 141.15-22.8L141.15-22.8Q143.98-22.8 147.5-20.85L147.5-20.85Q149.16-19.92 150.14-18.75 151.11-17.58 151.11-16.36L151.11-16.36Q151.11-16.02 151.06-15.67L151.06-15.67Q150.97-12.7 148.18-11.91L148.18-11.91Q146.96-11.57 145.35-11.57L145.35-11.57 138.32-11.87Q134.8-11.87 132.95-10.35L132.95-10.35Q131.87-9.52 131.44-7.86L131.44-7.86Q132.66-3.42 137.69-3.42ZM146.4-18.51Q145.3-19.29 144.13-19.63 142.96-19.97 142.18-19.97 141.4-19.97 139.64-19.46 137.88-18.95 136.51-18.31L136.51-18.31Q133.14-16.75 133.14-15.04L133.14-15.04Q137.05-14.7 139-14.7L139-14.7Q144.42-14.7 146.33-15.63L146.33-15.63Q147.5-16.11 147.5-16.85L147.5-16.85Q147.5-17.72 146.4-18.51ZM198.96-27.1L198.96-27.1Q195.79-30.22 191.93-30.22L191.93-30.22Q188.27-30.22 184.9-27.44L184.9-27.44Q180.65-23.93 179.04-18.36L179.04-18.36Q178.45-16.36 178.45-15.04 178.45-13.72 178.55-12.99L178.55-12.99Q178.55-8.15 181.82-5.57L181.82-5.57Q184.9-3.17 189.68-3.17L189.68-3.17Q196.23-3.71 202.23-8.2L202.23-8.2Q203.89-9.47 205.75-10.64L205.75-10.64Q206.43-10.64 207.14-10.45 207.85-10.25 207.85-9.33L207.85-9.33Q203.01-5.13 199.69-3.27L199.69-3.27Q193.54 0.05 188.56 0.05L188.56 0.05Q188.22 0.05 187.92 0.05L187.92 0.05Q182.5 0.05 178.65-3.32L178.65-3.32Q174.55-6.88 174.55-12.21L174.55-12.21Q174.55-16.21 175.99-19.87 177.43-23.54 179.94-26.34 182.46-29.15 185.9-30.81 189.34-32.47 193.3-32.47L193.3-32.47Q196.66-32.47 197.69-31.54L197.69-31.54Q198.96-30.42 198.96-27.1ZM211.41-9.28L211.41-9.28Q211.41-15.04 216.39-18.55L216.39-18.55Q220.34-21.34 225.91-21.92L225.91-21.92Q226.2-21.92 227.28-21.92 228.35-21.92 230.16-21.29L230.16-21.29Q234.16-19.92 235.63-16.46L235.63-16.46Q236.21-15.09 236.21-14.14 236.21-13.18 236.16-12.79L236.16-12.79Q236.16-6.69 231.53-3.17L231.53-3.17Q227.23 0.05 220.78 0.05L220.78 0.05Q216.14 0.05 213.78-2.1 211.41-4.25 211.41-9.28ZM214.78-8.11L214.78-8.11Q214.78-5.08 216.39-4L216.39-4Q217.61-3.22 220.49-3.22 223.37-3.22 225.57-3.66 227.77-4.1 229.47-5.18L229.47-5.18Q233.14-7.52 233.14-12.45L233.14-12.45Q233.14-15.38 231.57-17.24L231.57-17.24Q229.87-19.24 227.08-19.24L227.08-19.24Q225.18-18.9 223.25-18.51 221.32-18.12 219.61-16.99L219.61-16.99Q215.9-14.6 214.78-8.11ZM242.36-0.78L242.36-0.78Q240.36 0.05 239.7 0.05 239.04 0.05 238.8-0.1 238.55-0.24 238.26-0.78L238.26-0.78Q238.26-2.39 238.38-4.83 238.51-7.28 238.6-10.06 238.7-12.84 238.7-15.67 238.7-18.51 238.41-20.85L238.41-20.85Q238.41-22.41 240.51-22.41L240.51-22.41Q241-22.41 241.26-20.65 241.53-18.9 241.65-17.92 241.78-16.94 241.87-16.5L241.87-16.5Q243.14-18.8 246.9-20.12L246.9-20.12Q248.91-20.75 250.66-20.75 252.42-20.75 253.76-20.34 255.11-19.92 256.06-18.82 257.01-17.72 257.01-15.92L257.01-15.92Q258.28-18.31 262.72-20.21L262.72-20.21Q266.78-22.02 270-22.02L270-22.02Q274.64-22.02 274.54-18.51L274.54-18.51 275.57-0.34Q275.57-0.1 274.15 0L274.15 0Q271.42 0.2 271.42-0.49L271.42-0.49Q271.37-1.46 271.37-2.44L271.37-2.44 271.61-10.3Q271.61-15.82 270.54-19.04L270.54-19.04Q267.31-18.8 265.58-17.99 263.85-17.19 262.53-15.99 261.21-14.79 260.19-12.79L260.19-12.79Q257.89-8.3 257.89-0.88L257.89-0.88Q257.6 0.15 255.99 0.15L255.99 0.15Q254.91 0.15 254.23-0.22 253.54-0.59 253.69-0.88L253.69-0.88Q254.62-6.05 254.62-8.94L254.62-8.94Q254.62-11.23 254.15-13.31 253.69-15.38 253.01-18.07L253.01-18.07Q245.98-18.07 243.53-12.45L243.53-12.45Q242.46-9.96 242.34-7.79 242.22-5.62 242.22-4.08 242.22-2.54 242.36-0.78ZM305.25-16.31L305.25-16.31Q305.5-16.31 305.5-14.99 305.5-13.67 305.59-13.18L305.59-13.18 288.84-11.13 289.72-0.29 285.77-0.49Q285.77-4.88 284.79-10.55L284.79-10.55 278.44-8.11Q277.81-8.11 277.37-8.84L277.37-8.84Q276.59-10.11 276.59-11.13L276.59-11.13 284.01-13.77Q283.03-22.17 283.03-27.42 283.03-32.67 283.91-35.6 284.79-38.53 286.48-39.53 288.16-40.53 290.07-40.53 291.97-40.53 293.95-39.7 295.92-38.87 297.73-37.6 299.54-36.33 300.81-34.74 302.08-33.15 302.08-31.64L302.08-31.64Q302.08-30.47 301.83-29.98L301.83-29.98Q299.88-32.71 297.1-34.86L297.1-34.86Q293.78-37.4 290.85-37.4L290.85-37.4Q288.06-37.4 287.14-33.45L287.14-33.45Q286.7-31.4 286.7-27.66 286.7-23.93 286.89-20.83 287.09-17.72 288.06-14.6L288.06-14.6Q291.09-14.6 294.85-15.14L294.85-15.14Q302.08-16.26 305.25-16.31ZM308.13-9.28L308.13-9.28Q308.13-15.04 313.11-18.55L313.11-18.55Q317.06-21.34 322.63-21.92L322.63-21.92Q322.92-21.92 324-21.92 325.07-21.92 326.88-21.29L326.88-21.29Q330.88-19.92 332.35-16.46L332.35-16.46Q332.93-15.09 332.93-14.14 332.93-13.18 332.89-12.79L332.89-12.79Q332.89-6.69 328.25-3.17L328.25-3.17Q323.95 0.05 317.5 0.05L317.5 0.05Q312.87 0.05 310.5-2.1 308.13-4.25 308.13-9.28ZM311.5-8.11L311.5-8.11Q311.5-5.08 313.11-4L313.11-4Q314.33-3.22 317.21-3.22 320.09-3.22 322.29-3.66 324.49-4.1 326.2-5.18L326.2-5.18Q329.86-7.52 329.86-12.45L329.86-12.45Q329.86-15.38 328.3-17.24L328.3-17.24Q326.59-19.24 323.8-19.24L323.8-19.24Q321.9-18.9 319.97-18.51 318.04-18.12 316.33-16.99L316.33-16.99Q312.62-14.6 311.5-8.11ZM359.01-17.82L359.01-17.82Q356.95-19.29 353.73-19.29L353.73-19.29Q350.7-19.29 348.12-18.16L348.12-18.16Q343.23-16.11 341.43-12.89L341.43-12.89Q340.65-11.43 340.65-9.77L340.65-9.77Q340.65-9.47 340.65-8.13 340.65-6.79 341.13-4.52 341.62-2.25 341.62 0.1L341.62 0.1Q340.6 0.15 339.96 0.34 339.33 0.54 338.89 0.54 338.45 0.54 338.13 0.15 337.81-0.24 337.42-1.37L337.42-1.37Q337.37-1.66 337.23-3.03 337.08-4.39 336.86-6.35 336.64-8.3 336.37-10.62 336.11-12.94 335.86-15.19L335.86-15.19Q335.32-20.07 335.03-22.36L335.03-22.36Q335.03-23.54 336.74-23.54L336.74-23.54Q337.77-23.54 338.35-22.68 338.94-21.83 339.28-20.73 339.62-19.63 339.74-18.55 339.87-17.48 339.96-17.04L339.96-17.04Q346.41-22.8 355.98-22.8L355.98-22.8Q357.05-22.8 358.22-22.75L358.22-22.75Q358.52-22.8 358.96-22.8 359.4-22.8 359.84-22.22L359.84-22.22Q360.37-21.53 360.37-20.56L360.37-20.56Q360.37-18.12 359.01-17.82ZM369.99-4.69L369.99-4.69 370.09-12.5Q370.09-14.36 369.75-15.67L369.75-15.67 362.18-15.67 362.08-19.04 369.4-19.04 369.4-31.64Q369.55-32.08 369.99-32.52L369.99-32.52Q370.67-33.2 371.14-33.2 371.6-33.2 371.94-33.11 372.28-33.01 372.68-32.42L372.68-32.42Q373.46-29.2 373.46-22.71L373.46-22.71Q373.46-21.09 373.6-19.53L373.6-19.53Q375.17-19.73 376.73-19.73L376.73-19.73Q376.73-19.73 379.27-19.73L379.27-19.73Q380.19-19.73 380.98-19.82L380.98-19.82 380.83-16.31 373.7-16.5 373.94 0.34Q373.07 0.73 372.43 0.73L372.43 0.73Q369.99 0.73 369.99-4.69ZM407.53-8.15L407.53-8.15 407.73-4.59Q407.73-4.3 407.7-3.52 407.68-2.73 407.12-2.12 406.56-1.51 405.75-1.51 404.95-1.51 404.51-1.56L404.51-1.56Q402.89-1.56 402.89-2.98L402.89-2.98Q402.89-4.15 403.97-12.43 405.04-20.7 405.34-23.1 405.63-25.49 405.85-27.12 406.07-28.76 406.17-29.54 406.26-30.32 406.46-31.1 406.65-31.88 407.05-32.37L407.05-32.37Q407.78-33.3 409.88-33.3L409.88-33.3Q413.39-31.54 417.1-23.34L417.1-23.34Q419.74-17.48 420.62-15.92 421.5-14.36 422.33-13.77L422.33-13.77 432.09-30.76Q433.12-31.49 433.66-31.49L433.66-31.49Q435.22-31.49 436.05-30.08 436.88-28.66 437.44-26.64 438-24.61 438.42-22.17 438.83-19.73 439.15-17.07 439.47-14.4 439.76-11.87L439.76-11.87Q440.44-5.76 440.81-4.2 441.18-2.64 441.18-1.98 441.18-1.32 440.74-0.71 440.3-0.1 439.52-0.1 438.73-0.1 437.95-0.71 437.17-1.32 437-2.22 436.83-3.13 436.66-4.59 436.49-6.05 436.24-7.89 436-9.72 435.76-11.74 435.51-13.77 435.27-15.63 435.02-17.48 434.83-18.92 434.63-20.36 434.54-21.09L434.54-21.09Q434.54-22.07 434.49-22.9 434.44-23.73 434.1-23.93 433.75-24.12 433.05-23.46 432.34-22.8 431.07-20.8L431.07-20.8Q428.33-16.55 423.16-6.49L423.16-6.49Q422.47-5.27 421.35-5.96L421.35-5.96Q420.03-6.69 419.11-9.72L419.11-9.72 410.12-28.81Q408.95-26.46 407.97-13.28L407.97-13.28Q407.83-11.67 407.78-10.55L407.78-10.55Q407.53-9.33 407.53-8.15ZM454.16-3.42L454.16-3.42Q458.46-3.42 467.1-7.32L467.1-7.32Q467.64-7.32 467.98-6.96 468.32-6.59 468.32-6.1L468.32-6.1Q466.37-2.78 460.85-0.93 455.33 0.93 450.55-0.29L450.55-0.29Q445.13-1.71 443.96-6.4L443.96-6.4Q443.86-7.32 443.86-8.89 443.86-10.45 444.66-13.01 445.47-15.58 447.42-17.87 449.38-20.17 452.01-21.48 454.65-22.8 457.63-22.8L457.63-22.8Q460.46-22.8 463.98-20.85L463.98-20.85Q465.64-19.92 466.61-18.75 467.59-17.58 467.59-16.36L467.59-16.36Q467.59-16.02 467.54-15.67L467.54-15.67Q467.44-12.7 464.66-11.91L464.66-11.91Q463.44-11.57 461.83-11.57L461.83-11.57 454.8-11.87Q451.28-11.87 449.43-10.35L449.43-10.35Q448.35-9.52 447.91-7.86L447.91-7.86Q449.13-3.42 454.16-3.42ZM462.88-18.51Q461.78-19.29 460.61-19.63 459.44-19.97 458.65-19.97 457.87-19.97 456.11-19.46 454.36-18.95 452.99-18.31L452.99-18.31Q449.62-16.75 449.62-15.04L449.62-15.04Q453.53-14.7 455.48-14.7L455.48-14.7Q460.9-14.7 462.8-15.63L462.8-15.63Q463.98-16.11 463.98-16.85L463.98-16.85Q463.98-17.72 462.88-18.51ZM481.21-3.42L481.21-3.42Q485.51-3.42 494.15-7.32L494.15-7.32Q494.69-7.32 495.03-6.96 495.37-6.59 495.37-6.1L495.37-6.1Q493.42-2.78 487.9-0.93 482.38 0.93 477.6-0.29L477.6-0.29Q472.18-1.71 471-6.4L471-6.4Q470.91-7.32 470.91-8.89 470.91-10.45 471.71-13.01 472.52-15.58 474.47-17.87 476.42-20.17 479.06-21.48 481.7-22.8 484.68-22.8L484.68-22.8Q487.51-22.8 491.02-20.85L491.02-20.85Q492.68-19.92 493.66-18.75 494.64-17.58 494.64-16.36L494.64-16.36Q494.64-16.02 494.59-15.67L494.59-15.67Q494.49-12.7 491.71-11.91L491.71-11.91Q490.49-11.57 488.88-11.57L488.88-11.57 481.84-11.87Q478.33-11.87 476.47-10.35L476.47-10.35Q475.4-9.52 474.96-7.86L474.96-7.86Q476.18-3.42 481.21-3.42ZM489.93-18.51Q488.83-19.29 487.66-19.63 486.48-19.97 485.7-19.97 484.92-19.97 483.16-19.46 481.41-18.95 480.04-18.31L480.04-18.31Q476.67-16.75 476.67-15.04L476.67-15.04Q480.58-14.7 482.53-14.7L482.53-14.7Q487.95-14.7 489.85-15.63L489.85-15.63Q491.02-16.11 491.02-16.85L491.02-16.85Q491.02-17.72 489.93-18.51ZM505.67-4.69L505.67-4.69 505.77-12.5Q505.77-14.36 505.43-15.67L505.43-15.67 497.86-15.67 497.76-19.04 505.08-19.04 505.08-31.64Q505.23-32.08 505.67-32.52L505.67-32.52Q506.35-33.2 506.82-33.2 507.28-33.2 507.62-33.11 507.97-33.01 508.36-32.42L508.36-32.42Q509.14-29.2 509.14-22.71L509.14-22.71Q509.14-21.09 509.28-19.53L509.28-19.53Q510.85-19.73 512.41-19.73L512.41-19.73Q512.41-19.73 514.95-19.73L514.95-19.73Q515.88-19.73 516.66-19.82L516.66-19.82 516.51-16.31 509.38-16.5 509.63 0.34Q508.75 0.73 508.11 0.73L508.11 0.73Q505.67 0.73 505.67-4.69ZM535.21-12.6L535.21-12.6Q540.58-12.6 540.58-9.86L540.58-9.86Q540.58-7.81 537.6-5.08L537.6-5.08Q533.16-1.03 525.64 1.42L525.64 1.42Q525.3 1.42 524.88 0.73 524.47 0.05 524.25-0.32 524.03-0.68 523.93-0.78L523.93-0.78Q529.54-2.64 533.16-5.27L533.16-5.27Q535.6-7.03 535.6-8.15 535.6-9.28 532.72-9.28 529.84-9.28 524.27-7.91L524.27-7.91Q521.73-8.01 519.88-9.72L519.88-9.72Q518.27-11.23 518.27-12.77 518.27-14.31 519.14-15.6 520.02-16.89 521.49-18.02 522.95-19.14 524.91-20.07L524.91-20.07Q529.69-22.36 534.82-22.36L534.82-22.36Q536.33-22.36 537.75-22.07L537.75-22.07Q538.92-22.07 539.12-21.04 539.31-20.02 539.31-17.68L539.31-17.68Q536.43-18.99 532.82-18.99L532.82-18.99Q528.32-18.99 525.39-17.19L525.39-17.19Q522.37-15.43 522.27-12.6L522.27-12.6Q522.27-11.23 524.27-11.23L524.27-11.23 527.84-11.62Q532.43-12.6 535.21-12.6ZM569.87-13.77L569.87-13.77Q569.73-12.11 569.73-9.06 569.73-6.01 570.65-1.66L570.65-1.66 566.8 0.29 565.04-12.99Q563.33-13.23 563.33-14.16L563.33-14.16Q563.33-14.84 564.13-15.77 564.94-16.7 565.33-17.31 565.72-17.92 565.79-18.68 565.87-19.43 566.01-21.39 566.16-23.34 566.28-25.54 566.41-27.73 566.53-29.69 566.65-31.64 566.65-32.42L566.65-32.42Q567.72-33.5 568.21-33.74L568.21-33.74Q569.43-34.38 569.87-33.25L569.87-33.25 569.58-17.87Q581.64-17.87 584.08-19.43L584.08-19.43 584.08-34.86Q584.37-35.69 586.82-35.69L586.82-35.69Q587.35-35.69 587.69-35.64L587.69-35.64Q587.69-34.72 587.77-32.84 587.84-30.96 587.91-28.56 587.99-26.17 588.08-23.51 588.18-20.85 588.28-18.46L588.28-18.46Q588.43-13.48 588.52-11.13L588.52-11.13Q588.87-5.27 590.92-1.66L590.92-1.66Q588.72-0.78 586.08-0.78L586.08-0.78Q583.84-6.35 583.69-15.38L583.69-15.38Q580.47-15.48 579.3-15.48 578.12-15.48 576.66-15.33L576.66-15.33Q573.63-15.14 569.87-13.77ZM595.11-9.28L595.11-9.28Q595.11-15.04 600.09-18.55L600.09-18.55Q604.05-21.34 609.62-21.92L609.62-21.92Q609.91-21.92 610.98-21.92 612.06-21.92 613.86-21.29L613.86-21.29Q617.87-19.92 619.33-16.46L619.33-16.46Q619.92-15.09 619.92-14.14 619.92-13.18 619.87-12.79L619.87-12.79Q619.87-6.69 615.23-3.17L615.23-3.17Q610.93 0.05 604.49 0.05L604.49 0.05Q599.85 0.05 597.48-2.1 595.11-4.25 595.11-9.28ZM598.48-8.11L598.48-8.11Q598.48-5.08 600.09-4L600.09-4Q601.31-3.22 604.2-3.22 607.08-3.22 609.27-3.66 611.47-4.1 613.18-5.18L613.18-5.18Q616.84-7.52 616.84-12.45L616.84-12.45Q616.84-15.38 615.28-17.24L615.28-17.24Q613.57-19.24 610.79-19.24L610.79-19.24Q608.88-18.9 606.95-18.51 605.03-18.12 603.32-16.99L603.32-16.99Q599.61-14.6 598.48-8.11ZM626.07-0.78L626.07-0.78Q624.07 0.05 623.41 0.05 622.75 0.05 622.5-0.1 622.26-0.24 621.97-0.78L621.97-0.78Q621.97-2.39 622.09-4.83 622.21-7.28 622.31-10.06 622.41-12.84 622.41-15.67 622.41-18.51 622.11-20.85L622.11-20.85Q622.11-22.41 624.21-22.41L624.21-22.41Q624.7-22.41 624.97-20.65 625.24-18.9 625.36-17.92 625.48-16.94 625.58-16.5L625.58-16.5Q626.85-18.8 630.61-20.12L630.61-20.12Q632.61-20.75 634.37-20.75 636.13-20.75 637.47-20.34 638.81-19.92 639.76-18.82 640.72-17.72 640.72-15.92L640.72-15.92Q641.99-18.31 646.43-20.21L646.43-20.21Q650.48-22.02 653.7-22.02L653.7-22.02Q658.34-22.02 658.25-18.51L658.25-18.51 659.27-0.34Q659.27-0.1 657.86 0L657.86 0Q655.12 0.2 655.12-0.49L655.12-0.49Q655.07-1.46 655.07-2.44L655.07-2.44 655.32-10.3Q655.32-15.82 654.24-19.04L654.24-19.04Q651.02-18.8 649.29-17.99 647.55-17.19 646.23-15.99 644.92-14.79 643.89-12.79L643.89-12.79Q641.6-8.3 641.6-0.88L641.6-0.88Q641.3 0.15 639.69 0.15L639.69 0.15Q638.62 0.15 637.93-0.22 637.25-0.59 637.4-0.88L637.4-0.88Q638.32-6.05 638.32-8.94L638.32-8.94Q638.32-11.23 637.86-13.31 637.4-15.38 636.71-18.07L636.71-18.07Q629.68-18.07 627.24-12.45L627.24-12.45Q626.17-9.96 626.04-7.79 625.92-5.62 625.92-4.08 625.92-2.54 626.07-0.78ZM670.89-3.42L670.89-3.42Q675.19-3.42 683.83-7.32L683.83-7.32Q684.37-7.32 684.71-6.96 685.05-6.59 685.05-6.1L685.05-6.1Q683.1-2.78 677.58-0.93 672.06 0.93 667.28-0.29L667.28-0.29Q661.86-1.71 660.68-6.4L660.68-6.4Q660.59-7.32 660.59-8.89 660.59-10.45 661.39-13.01 662.2-15.58 664.15-17.87 666.1-20.17 668.74-21.48 671.38-22.8 674.36-22.8L674.36-22.8Q677.19-22.8 680.7-20.85L680.7-20.85Q682.36-19.92 683.34-18.75 684.32-17.58 684.32-16.36L684.32-16.36Q684.32-16.02 684.27-15.67L684.27-15.67Q684.17-12.7 681.39-11.91L681.39-11.91Q680.17-11.57 678.56-11.57L678.56-11.57 671.52-11.87Q668.01-11.87 666.15-10.35L666.15-10.35Q665.08-9.52 664.64-7.86L664.64-7.86Q665.86-3.42 670.89-3.42ZM679.61-18.51Q678.51-19.29 677.34-19.63 676.16-19.97 675.38-19.97 674.6-19.97 672.84-19.46 671.09-18.95 669.72-18.31L669.72-18.31Q666.35-16.75 666.35-15.04L666.35-15.04Q670.25-14.7 672.21-14.7L672.21-14.7Q677.63-14.7 679.53-15.63L679.53-15.63Q680.7-16.11 680.7-16.85L680.7-16.85Q680.7-17.72 679.61-18.51ZM689.73-3.27L689.73-3.27Q691.79-3.27 692.25-2.88 692.71-2.49 692.71-2.05L692.71-2.05Q692.18-0.1 690.37 0.29L690.37 0.29Q690.08 0.34 689.73 0.34 689.39 0.34 688.88 0.15 688.37-0.05 688.12-0.54L688.12-0.54Q687.59-1.76 689.73-3.27ZM688.81-43.8L692.03-43.99Q691.74-42.72 691.74-28.15 691.74-13.57 691-11.38L691-11.38 687.73-11.38Q687.73-16.41 688.12-23.97L688.12-23.97Q688.81-38.67 688.81-43.8L688.81-43.8Z" opacity="1" transform="matrix(1,0,0,1,0,0)" fill="#506183" class="slogan-text-1" data-fill-palette-color="secondary" id="text-1"></path></svg></g></svg></g></svg></g></svg></g><g><svg viewBox="0 0 104.1975578103637 120.46290699704002" height="120.46290699704002" width="104.1975578103637"><g><svg xmlns="http://www.w3.org/2000/svg" xmlns:xlink="http://www.w3.org/1999/xlink" version="1.1" x="0" y="0" viewBox="7.795000000000001 0.0620000000000005 86.444 99.938" enable-background="new 0 0 100 100" xml:space="preserve" height="120.46290699704002" width="104.1975578103637" class="icon-icon-0" data-fill-palette-color="accent" id="icon-0"><g fill="#4a5c7e" data-fill-palette-color="accent"><path d="M43.119 9.529l1.741 1.048v2.091l-4.879 2.788 3.022 1.687v1.973l-1.57 0.872-4.705-2.789-3.196 2.087 3.118 1.913-3.241 1.864 3.318 1.748 4.705-2.614 1.511 1.104v1.858l-2.963 1.684 4.705 2.732v2.207l-1.974 0.928-4.59-2.614v3.429l-1.684 0.931-1.627-0.931v-5.242l-3.37-1.987v3.683l-3.253-1.972v3.658l4.587 2.615v2.033l-1.547 0.813-3.04-1.741v5.576l-1.86 1.103-1.858-1.103v-5.576l-3.041 1.741-1.606-0.929V34.28l4.647-2.615v-3.658l-3.37 2.148v-3.893l-3.196 1.862v5.228l-1.742 1.105-1.454-0.988v-3.489L9.828 32.71l-2.032-0.869v-2.266l5.053-2.732-3.137-1.626v-2.032l1.802-0.988 4.53 2.669 3.195-1.807-3.341-1.923 3.14-1.987-3.144-1.788-4.556 2.688-1.742-0.874v-1.973l3.137-1.744-4.938-2.674V10.58l1.855-0.989 4.882 2.813V8.839l1.505-0.993 1.866 0.997v5.382l3.196 1.871V12.26l3.37 1.86V10.46l-4.647-2.614V5.929l1.606-0.931 3.041 1.744v-5.52l1.858-1.16 1.86 1.16v5.52l3.155-1.802 1.609 1.105v1.743l-4.764 2.672v3.659l3.253-1.975v3.952l3.37-1.802V8.543l1.568-0.755 1.742 0.755v3.66L43.119 9.529zM29.466 21.207l-1.511-2.613h-3.139l-1.567 2.613 1.687 2.441h3.078L29.466 21.207z" fill="#4a5c7e" data-fill-palette-color="accent"></path><polygon points="14.143,67.795 15.22,83.626 16.643,73.87 19.108,96.264 21.608,77.307 24.419,87.967 24.393,74.202 19.247,68.766     " fill="#4a5c7e" data-fill-palette-color="accent"></polygon><polygon points="93.962,100 93.962,92.657 41.432,92.657 41.432,67.014 93.962,39.706 93.962,30.894 27.31,65.533 27.31,74.244    34.133,70.771 34.133,100  " fill="#4a5c7e" data-fill-palette-color="accent"></polygon><path d="M94.239 7.463c-3.821 1.259-11.272 4.02-16.754 7.979-7.687 5.55-7.485 9.754-16.709 16.425-3.534 2.555-11.211 3.541-16.077 6.477-6.708 4.05-8.408 8.725-11.426 10.562-4.019 2.449-11.488 3.424-15.693 7.777-4.019 4.158-5.574 15.296 0.891 18.488 2.117 1.046 4.144 0.391 5.921-0.97V63.647l69.847-36.298V7.463z" fill="#4a5c7e" data-fill-palette-color="accent"></path></g></svg></g></svg></g></svg></g><defs></defs></svg><rect width="395.52" height="93.91033233836909" fill="none" stroke="none" visibility="hidden"></rect></g></svg></g></svg>